<svg xmlns="http://www.w3.org/2000/svg" viewBox="0 0 800 1000" preserveAspectRatio="xMidYMid slice" role="img" aria-label="Avatar — Diego S.">
    <defs>
        <linearGradient id="bgA3" x1="0" y1="0" x2="1" y2="1">
            <stop offset="0%" stop-color="#0a0814"/>
            <stop offset="100%" stop-color="#050308"/>
        </linearGradient>
        <radialGradient id="haloA3" cx="0.5" cy="0.4" r="0.55">
            <stop offset="0%" stop-color="#06b6d4" stop-opacity="0.4"/>
            <stop offset="100%" stop-color="#06b6d4" stop-opacity="0"/>
        </radialGradient>
        <radialGradient id="goldHaloA3" cx="0.3" cy="0.7" r="0.4">
            <stop offset="0%" stop-color="#d49b3a" stop-opacity="0.32"/>
            <stop offset="100%" stop-color="#d49b3a" stop-opacity="0"/>
        </radialGradient>
        <linearGradient id="goldA3" x1="0" y1="0" x2="0" y2="1">
            <stop offset="0%" stop-color="#fff5d8"/>
            <stop offset="100%" stop-color="#8a5a18"/>
        </linearGradient>
        <linearGradient id="skinA3" x1="0" y1="0" x2="0" y2="1">
            <stop offset="0%" stop-color="#e0b890"/>
            <stop offset="100%" stop-color="#b88860"/>
        </linearGradient>
        <linearGradient id="hairA3" x1="0" y1="0" x2="0" y2="1">
            <stop offset="0%" stop-color="#1a0a08"/>
            <stop offset="100%" stop-color="#0a0503"/>
        </linearGradient>
        <filter id="grainA3" x="0" y="0" width="100%" height="100%">
            <feTurbulence type="fractalNoise" baseFrequency="0.9" numOctaves="2" seed="43"/>
            <feColorMatrix values="0 0 0 0 0.83  0 0 0 0 0.61  0 0 0 0 0.23  0 0 0 0.18 0"/>
        </filter>
    </defs>

    <rect width="800" height="1000" fill="url(#bgA3)"/>
    <rect width="800" height="1000" fill="url(#haloA3)"/>
    <rect width="800" height="1000" fill="url(#goldHaloA3)"/>

    <g transform="translate(400, 380)" opacity="0.95">
        <path d="M -135 -80 Q -150 -200 -50 -230 Q 50 -250 110 -210 Q 150 -170 140 -80 Q 140 -60 130 -50 L -130 -50 Q -135 -60 -135 -80 Z" fill="url(#hairA3)"/>
        <ellipse cx="0" cy="0" rx="120" ry="150" fill="url(#skinA3)"/>
        <ellipse cx="-38" cy="-15" rx="6" ry="9" fill="#1a0a08"/>
        <ellipse cx="38" cy="-15" rx="6" ry="9" fill="#1a0a08"/>
        <path d="M -32 50 Q 0 60 32 50" stroke="#3a1f1a" stroke-width="3" fill="none" stroke-linecap="round"/>

        <path d="M -250 200 Q -250 130 -150 130 L 150 130 Q 250 130 250 200 L 250 350 L -250 350 Z" fill="url(#skinA3)" opacity="0.85"/>
    </g>

    <text x="50" y="70" font-family="Playfair Display, serif" font-style="italic" font-size="16" fill="#e8d8c4" opacity="0.6">PL. W — CLIENTES</text>
    <text x="750" y="70" font-family="JetBrains Mono, monospace" font-size="12" fill="#d49b3a" text-anchor="end" opacity="0.7">Nº 010 — MMXXVI</text>

    <text x="400" y="900" font-family="Playfair Display, serif" font-style="italic" font-size="32" fill="#e8d8c4" text-anchor="middle">Diego S.</text>
    <text x="400" y="935" font-family="JetBrains Mono, monospace" font-size="12" fill="#d49b3a" text-anchor="middle" letter-spacing="3">CLIENTE · 1 AÑO</text>

    <rect x="20" y="20" width="760" height="960" fill="none" stroke="#d49b3a" stroke-width="0.5" opacity="0.45"/>
    <rect x="35" y="35" width="730" height="930" fill="none" stroke="#d49b3a" stroke-width="0.5" opacity="0.2"/>

    <rect width="800" height="1000" filter="url(#grainA3)" opacity="0.55"/>
</svg>
