<svg xmlns="http://www.w3.org/2000/svg" viewBox="0 0 800 1000" preserveAspectRatio="xMidYMid slice" role="img" aria-label="Avatar — Carlos M.">
    <defs>
        <linearGradient id="bgA1" x1="0" y1="0" x2="1" y2="1">
            <stop offset="0%" stop-color="#0a0814"/>
            <stop offset="100%" stop-color="#050308"/>
        </linearGradient>
        <radialGradient id="haloA1" cx="0.5" cy="0.4" r="0.55">
            <stop offset="0%" stop-color="#a78bfa" stop-opacity="0.4"/>
            <stop offset="100%" stop-color="#a78bfa" stop-opacity="0"/>
        </radialGradient>
        <radialGradient id="goldHaloA1" cx="0.7" cy="0.3" r="0.4">
            <stop offset="0%" stop-color="#d49b3a" stop-opacity="0.32"/>
            <stop offset="100%" stop-color="#d49b3a" stop-opacity="0"/>
        </radialGradient>
        <linearGradient id="goldA1" x1="0" y1="0" x2="0" y2="1">
            <stop offset="0%" stop-color="#fff5d8"/>
            <stop offset="100%" stop-color="#8a5a18"/>
        </linearGradient>
        <linearGradient id="skinA1" x1="0" y1="0" x2="0" y2="1">
            <stop offset="0%" stop-color="#e0b890"/>
            <stop offset="100%" stop-color="#b88860"/>
        </linearGradient>
        <linearGradient id="hairA1" x1="0" y1="0" x2="0" y2="1">
            <stop offset="0%" stop-color="#3a1f1a"/>
            <stop offset="100%" stop-color="#1a0a08"/>
        </linearGradient>
        <filter id="grainA1" x="0" y="0" width="100%" height="100%">
            <feTurbulence type="fractalNoise" baseFrequency="0.9" numOctaves="2" seed="41"/>
            <feColorMatrix values="0 0 0 0 0.83  0 0 0 0 0.61  0 0 0 0 0.23  0 0 0 0.18 0"/>
        </filter>
    </defs>

    <rect width="800" height="1000" fill="url(#bgA1)"/>
    <rect width="800" height="1000" fill="url(#haloA1)"/>
    <rect width="800" height="1000" fill="url(#goldHaloA1)"/>

    <g transform="translate(400, 380)" opacity="0.95">
        <path d="M -150 -40 Q -180 -180 -100 -240 Q 0 -300 100 -240 Q 180 -180 150 -40 Q 150 60 100 110 L -100 110 Q -150 60 -150 -40 Z" fill="url(#hairA1)"/>
        <ellipse cx="0" cy="0" rx="125" ry="155" fill="url(#skinA1)"/>
        <ellipse cx="-40" cy="-15" rx="6" ry="9" fill="#1a0a08"/>
        <ellipse cx="40" cy="-15" rx="6" ry="9" fill="#1a0a08"/>
        <path d="M -30 50 Q 0 65 30 50" stroke="#1a0a08" stroke-width="3" fill="none" stroke-linecap="round"/>

        <path d="M -260 200 Q -260 130 -160 130 L 160 130 Q 260 130 260 200 L 260 350 L -260 350 Z" fill="url(#skinA1)" opacity="0.85"/>
    </g>

    <text x="50" y="70" font-family="Playfair Display, serif" font-style="italic" font-size="16" fill="#e8d8c4" opacity="0.6">PL. S — COMUNIDAD</text>
    <text x="750" y="70" font-family="JetBrains Mono, monospace" font-size="12" fill="#d49b3a" text-anchor="end" opacity="0.7">Nº 008 — MMXXVI</text>

    <text x="400" y="900" font-family="Playfair Display, serif" font-style="italic" font-size="32" fill="#e8d8c4" text-anchor="middle">Carlos M.</text>
    <text x="400" y="935" font-family="JetBrains Mono, monospace" font-size="12" fill="#d49b3a" text-anchor="middle" letter-spacing="3">SUB · 8 MESES</text>

    <rect x="20" y="20" width="760" height="960" fill="none" stroke="#d49b3a" stroke-width="0.5" opacity="0.45"/>
    <rect x="35" y="35" width="730" height="930" fill="none" stroke="#d49b3a" stroke-width="0.5" opacity="0.2"/>

    <rect width="800" height="1000" filter="url(#grainA1)" opacity="0.55"/>
</svg>
