<svg xmlns="http://www.w3.org/2000/svg" viewBox="0 0 600 600" preserveAspectRatio="xMidYMid slice" role="img" aria-label="Gallery — Win épico">
    <defs>
        <linearGradient id="bgWin" x1="0" y1="0" x2="1" y2="1">
            <stop offset="0%" stop-color="#0a0814"/>
            <stop offset="100%" stop-color="#050308"/>
        </linearGradient>
        <radialGradient id="haloWin" cx="0.5" cy="0.45" r="0.55">
            <stop offset="0%" stop-color="#f4d870" stop-opacity="0.35"/>
            <stop offset="100%" stop-color="#f4d870" stop-opacity="0"/>
        </radialGradient>
        <linearGradient id="goldWin" x1="0" y1="0" x2="0" y2="1">
            <stop offset="0%" stop-color="#fff5d8"/>
            <stop offset="50%" stop-color="#f4d870"/>
            <stop offset="100%" stop-color="#8a5a18"/>
        </linearGradient>
        <filter id="grainWin" x="0" y="0" width="100%" height="100%">
            <feTurbulence type="fractalNoise" baseFrequency="0.9" numOctaves="2" seed="22"/>
            <feColorMatrix values="0 0 0 0 0.83  0 0 0 0 0.61  0 0 0 0 0.23  0 0 0 0.18 0"/>
        </filter>
    </defs>

    <rect width="600" height="600" fill="url(#bgWin)"/>
    <rect width="600" height="600" fill="url(#haloWin)"/>

    <g transform="translate(300, 280)" opacity="0.95">
        <path d="M -100 -100 L 100 -100 L 100 30 Q 100 100 0 130 Q -100 100 -100 30 Z" fill="url(#goldWin)" opacity="0.92"/>
        <path d="M -78 -78 L 78 -78 L 78 26 Q 78 80 0 105 Q -78 80 -78 26 Z" fill="#0a0814"/>
        <text x="0" y="20" font-family="Playfair Display, serif" font-style="italic" font-size="62" fill="url(#goldWin)" text-anchor="middle">#1</text>
        <rect x="-50" y="130" width="100" height="14" rx="2" fill="url(#goldWin)"/>
        <rect x="-90" y="146" width="180" height="22" rx="3" fill="#14101f" stroke="url(#goldWin)" stroke-width="2"/>
        <text x="0" y="162" font-family="JetBrains Mono, monospace" font-size="10" fill="#f4d870" text-anchor="middle" letter-spacing="3">VICTORY</text>

        <g opacity="0.9">
            <path d="M -160 -40 L -150 -55 L -140 -40 L -125 -50 L -135 -35 L -120 -30 L -135 -25 L -125 -10 L -140 -20 L -150 -5 L -160 -20 L -170 -5 L -180 -20 L -170 -35 L -185 -50 L -170 -40 Z" fill="#f4d870"/>
            <path d="M 160 -40 L 170 -55 L 180 -40 L 195 -50 L 185 -35 L 200 -30 L 185 -25 L 195 -10 L 180 -20 L 170 -5 L 160 -20 L 150 -5 L 140 -20 L 150 -35 L 135 -50 L 150 -40 Z" fill="#f4d870"/>
        </g>
    </g>

    <text x="30" y="40" font-family="JetBrains Mono, monospace" font-size="10" fill="#d49b3a" opacity="0.7" letter-spacing="2">Nº 003 · WIN ÉPICO</text>
    <text x="570" y="570" font-family="Playfair Display, serif" font-style="italic" font-size="16" fill="#e8d8c4" opacity="0.7" text-anchor="end">Win épico</text>

    <rect x="15" y="15" width="570" height="570" fill="none" stroke="#d49b3a" stroke-width="0.5" opacity="0.45"/>
    <rect x="30" y="30" width="540" height="540" fill="none" stroke="#d49b3a" stroke-width="0.5" opacity="0.2"/>

    <rect width="600" height="600" filter="url(#grainWin)" opacity="0.5"/>
</svg>
