<svg xmlns="http://www.w3.org/2000/svg" viewBox="0 0 600 600" preserveAspectRatio="xMidYMid slice" role="img" aria-label="Plataforma — Paramount+">
    <defs>
        <linearGradient id="bgPp" x1="0" y1="0" x2="1" y2="1"><stop offset="0%" stop-color="#0a0814"/><stop offset="100%" stop-color="#050308"/></linearGradient>
        <radialGradient id="haloPp" cx="0.5" cy="0.45" r="0.55"><stop offset="0%" stop-color="#a78bfa" stop-opacity="0.3"/><stop offset="100%" stop-color="#a78bfa" stop-opacity="0"/></radialGradient>
        <linearGradient id="goldPp" x1="0" y1="0" x2="0" y2="1"><stop offset="0%" stop-color="#fff5d8"/><stop offset="100%" stop-color="#8a5a18"/></linearGradient>
        <filter id="grainPp" x="0" y="0" width="100%" height="100%"><feTurbulence type="fractalNoise" baseFrequency="0.9" numOctaves="2" seed="58"/><feColorMatrix values="0 0 0 0 0.83  0 0 0 0 0.61  0 0 0 0 0.23  0 0 0 0.18 0"/></filter>
    </defs>
    <rect width="600" height="600" fill="url(#bgPp)"/><rect width="600" height="600" fill="url(#haloPp)"/>
    <g transform="translate(300, 320)" opacity="0.95">
        <path d="M -150 0 L -50 -100 L 50 -100 L 150 0 L 50 100 L -50 100 Z" fill="none" stroke="url(#goldPp)" stroke-width="6" stroke-linejoin="round"/>
        <path d="M -130 -50 L -130 50 L -90 70 L -50 70 L -50 -50 L -90 -70 Z" fill="none" stroke="url(#goldPp)" stroke-width="3" opacity="0.6"/>
        <path d="M -30 -80 L -30 -20 L 0 -10 L 0 60 L 30 70 L 30 -10 L 60 -20 L 60 -80 Z" fill="none" stroke="url(#goldPp)" stroke-width="3" opacity="0.6"/>
        <path d="M 80 -70 L 80 70 L 110 50 L 110 -50 Z" fill="none" stroke="url(#goldPp)" stroke-width="3" opacity="0.6"/>
        <g transform="translate(0, -130)" opacity="0.95">
            <path d="M 0 -20 L 4 -6 L 18 -6 L 7 3 L 11 17 L 0 9 L -11 17 L -7 3 L -18 -6 L -4 -6 Z" fill="url(#goldPp)"/>
        </g>
    </g>
    <text x="30" y="40" font-family="JetBrains Mono, monospace" font-size="10" fill="#d49b3a" opacity="0.7" letter-spacing="2">PLATFORM · PARAMOUNT+</text>
    <text x="570" y="570" font-family="Playfair Display, serif" font-style="italic" font-size="16" fill="#e8d8c4" opacity="0.7" text-anchor="end">Paramount+</text>
    <rect x="15" y="15" width="570" height="570" fill="none" stroke="#d49b3a" stroke-width="0.5" opacity="0.45"/>
    <rect x="30" y="30" width="540" height="540" fill="none" stroke="#d49b3a" stroke-width="0.5" opacity="0.2"/>
    <rect width="600" height="600" filter="url(#grainPp)" opacity="0.5"/>
</svg>
