<svg xmlns="http://www.w3.org/2000/svg" viewBox="0 0 600 600" preserveAspectRatio="xMidYMid slice" role="img" aria-label="Plataforma — Netflix">
    <defs>
        <linearGradient id="bgN" x1="0" y1="0" x2="1" y2="1"><stop offset="0%" stop-color="#0a0814"/><stop offset="100%" stop-color="#050308"/></linearGradient>
        <radialGradient id="haloN" cx="0.5" cy="0.45" r="0.55"><stop offset="0%" stop-color="#d49b3a" stop-opacity="0.3"/><stop offset="100%" stop-color="#d49b3a" stop-opacity="0"/></radialGradient>
        <linearGradient id="goldN" x1="0" y1="0" x2="0" y2="1"><stop offset="0%" stop-color="#fff5d8"/><stop offset="100%" stop-color="#8a5a18"/></linearGradient>
        <filter id="grainN" x="0" y="0" width="100%" height="100%"><feTurbulence type="fractalNoise" baseFrequency="0.9" numOctaves="2" seed="51"/><feColorMatrix values="0 0 0 0 0.83  0 0 0 0 0.61  0 0 0 0 0.23  0 0 0 0.18 0"/></filter>
    </defs>
    <rect width="600" height="600" fill="url(#bgN)"/><rect width="600" height="600" fill="url(#haloN)"/>
    <g transform="translate(300, 280)" opacity="0.95">
        <path d="M -90 -120 L -90 120 L -50 120 L -50 -32 Q -50 -8 -32 -8 L 0 -8 L 0 120 L 40 120 L 40 -120 L 0 -120 L 0 -36 Q 0 -60 -20 -60 L -50 -60 L -50 -120 Z" fill="url(#goldN)"/>
    </g>
    <text x="30" y="40" font-family="JetBrains Mono, monospace" font-size="10" fill="#d49b3a" opacity="0.7" letter-spacing="2">PLATFORM · NETFLIX</text>
    <text x="570" y="570" font-family="Playfair Display, serif" font-style="italic" font-size="16" fill="#e8d8c4" opacity="0.7" text-anchor="end">Netflix</text>
    <rect x="15" y="15" width="570" height="570" fill="none" stroke="#d49b3a" stroke-width="0.5" opacity="0.45"/>
    <rect x="30" y="30" width="540" height="540" fill="none" stroke="#d49b3a" stroke-width="0.5" opacity="0.2"/>
    <rect width="600" height="600" filter="url(#grainN)" opacity="0.5"/>
</svg>
