<svg xmlns="http://www.w3.org/2000/svg" viewBox="0 0 600 600" preserveAspectRatio="xMidYMid slice" role="img" aria-label="Plataforma — Prime Video">
    <defs>
        <linearGradient id="bgPv" x1="0" y1="0" x2="1" y2="1"><stop offset="0%" stop-color="#0a0814"/><stop offset="100%" stop-color="#050308"/></linearGradient>
        <radialGradient id="haloPv" cx="0.5" cy="0.45" r="0.55"><stop offset="0%" stop-color="#06b6d4" stop-opacity="0.28"/><stop offset="100%" stop-color="#06b6d4" stop-opacity="0"/></radialGradient>
        <linearGradient id="goldPv" x1="0" y1="0" x2="0" y2="1"><stop offset="0%" stop-color="#fff5d8"/><stop offset="100%" stop-color="#8a5a18"/></linearGradient>
        <filter id="grainPv" x="0" y="0" width="100%" height="100%"><feTurbulence type="fractalNoise" baseFrequency="0.9" numOctaves="2" seed="55"/><feColorMatrix values="0 0 0 0 0.83  0 0 0 0 0.61  0 0 0 0 0.23  0 0 0 0.18 0"/></filter>
    </defs>
    <rect width="600" height="600" fill="url(#bgPv)"/><rect width="600" height="600" fill="url(#haloPv)"/>
    <g transform="translate(300, 280)" opacity="0.95">
        <path d="M -160 0 Q -100 -90 0 -90 Q 100 -90 160 0 Q 100 30 0 30 Q -100 30 -160 0 Z" fill="url(#goldPv)"/>
        <path d="M -160 0 Q -100 90 0 90 Q 100 90 160 0 Q 100 -10 0 -10 Q -100 -10 -160 0 Z" fill="url(#goldPv)" opacity="0.85"/>
        <text x="0" y="-6" font-family="Crimson Pro, serif" font-style="italic" font-size="42" fill="#0a0814" text-anchor="middle" font-weight="700">prime</text>
        <path d="M -36 14 Q -10 22 36 14" stroke="#0a0814" stroke-width="3" fill="none" stroke-linecap="round"/>
    </g>
    <text x="30" y="40" font-family="JetBrains Mono, monospace" font-size="10" fill="#d49b3a" opacity="0.7" letter-spacing="2">PLATFORM · PRIME VIDEO</text>
    <text x="570" y="570" font-family="Playfair Display, serif" font-style="italic" font-size="16" fill="#e8d8c4" opacity="0.7" text-anchor="end">Prime Video</text>
    <rect x="15" y="15" width="570" height="570" fill="none" stroke="#d49b3a" stroke-width="0.5" opacity="0.45"/>
    <rect x="30" y="30" width="540" height="540" fill="none" stroke="#d49b3a" stroke-width="0.5" opacity="0.2"/>
    <rect width="600" height="600" filter="url(#grainPv)" opacity="0.5"/>
</svg>
