<svg xmlns="http://www.w3.org/2000/svg" viewBox="0 0 600 600" preserveAspectRatio="xMidYMid slice" role="img" aria-label="Después — muestra">
    <defs>
        <linearGradient id="bgBaA" x1="0" y1="0" x2="1" y2="1">
            <stop offset="0%" stop-color="#0a0814"/>
            <stop offset="100%" stop-color="#050308"/>
        </linearGradient>
        <radialGradient id="haloBaA" cx="0.5" cy="0.45" r="0.55">
            <stop offset="0%" stop-color="#f4d870" stop-opacity="0.4"/>
            <stop offset="100%" stop-color="#f4d870" stop-opacity="0"/>
        </radialGradient>
        <linearGradient id="goldBaA" x1="0" y1="0" x2="0" y2="1">
            <stop offset="0%" stop-color="#fff5d8"/>
            <stop offset="100%" stop-color="#8a5a18"/>
        </linearGradient>
        <filter id="grainBaA" x="0" y="0" width="100%" height="100%">
            <feTurbulence type="fractalNoise" baseFrequency="0.9" numOctaves="2" seed="32"/>
            <feColorMatrix values="0 0 0 0 0.83  0 0 0 0 0.61  0 0 0 0 0.23  0 0 0 0.18 0"/>
        </filter>
    </defs>

    <rect width="600" height="600" fill="url(#bgBaA)"/>
    <rect width="600" height="600" fill="url(#haloBaA)"/>

    <g transform="translate(300, 280)" opacity="0.92">
        <circle cx="0" cy="0" r="140" fill="none" stroke="url(#goldBaA)" stroke-width="3"/>
        <circle cx="0" cy="0" r="80" fill="none" stroke="url(#goldBaA)" stroke-width="2" opacity="0.85"/>
        <text x="0" y="14" font-family="Playfair Display, serif" font-style="italic" font-size="72" fill="url(#goldBaA)" text-anchor="middle">A</text>

        <g opacity="0.95">
            <path d="M 100 -100 L 110 -110 L 120 -100 L 130 -110 L 120 -90 L 130 -80 L 120 -95 L 110 -85 Z" fill="#f4d870"/>
            <path d="M -100 -100 L -90 -110 L -80 -100 L -70 -110 L -80 -90 L -70 -80 L -80 -95 L -90 -85 Z" fill="#f4d870"/>
            <path d="M 100 100 L 110 90 L 120 100 L 130 90 L 120 110 L 130 120 L 120 105 L 110 115 Z" fill="#f4d870"/>
        </g>
    </g>

    <text x="30" y="40" font-family="JetBrains Mono, monospace" font-size="10" fill="#d49b3a" opacity="0.7" letter-spacing="2">SAMPLE · DESPUÉS</text>
    <text x="570" y="570" font-family="Playfair Display, serif" font-style="italic" font-size="16" fill="#e8d8c4" opacity="0.7" text-anchor="end">Después</text>

    <rect x="15" y="15" width="570" height="570" fill="none" stroke="#d49b3a" stroke-width="0.5" opacity="0.45"/>
    <rect x="30" y="30" width="540" height="540" fill="none" stroke="#d49b3a" stroke-width="0.5" opacity="0.2"/>

    <rect width="600" height="600" filter="url(#grainBaA)" opacity="0.5"/>
</svg>
