<svg xmlns="http://www.w3.org/2000/svg" viewBox="0 0 800 600" preserveAspectRatio="xMidYMid slice" role="img" aria-label="Después — color fantasía">
    <defs>
        <linearGradient id="bgAfterC" x1="0" y1="0" x2="1" y2="1">
            <stop offset="0%" stop-color="#2a1430"/>
            <stop offset="100%" stop-color="#050308"/>
        </linearGradient>
        <linearGradient id="hairAfterC" x1="0" y1="0" x2="0" y2="1">
            <stop offset="0%" stop-color="#7a1a8a"/>
            <stop offset="40%" stop-color="#e8784a"/>
            <stop offset="80%" stop-color="#f4d870"/>
            <stop offset="100%" stop-color="#fff5d8"/>
        </linearGradient>
        <radialGradient id="haloAfterC" cx="0.5" cy="0.3" r="0.65">
            <stop offset="0%" stop-color="#e8784a" stop-opacity="0.45"/>
            <stop offset="100%" stop-color="#e8784a" stop-opacity="0"/>
        </radialGradient>
        <filter id="grainAfterC"><feTurbulence baseFrequency="0.9" numOctaves="2" seed="102"/><feColorMatrix values="0 0 0 0 0  0 0 0 0 0  0 0 0 0 0  0 0 0 0.04 0"/><feComposite in2="SourceGraphic" operator="in"/></filter>
    </defs>

    <rect width="800" height="600" fill="url(#bgAfterC)"/>
    <rect width="800" height="600" fill="url(#haloAfterC)"/>

    <text x="40" y="50" font-family="JetBrains Mono, monospace" font-size="10" fill="#d49b3a" opacity="0.7" letter-spacing="2">RESULTADO · COLOR FANTASÍA</text>

    <g transform="translate(400, 360)">
        <!-- shoulders -->
        <path d="M -180 280 L -180 180 Q -100 100, 0 100 Q 100 100, 180 180 L 180 280 Z" fill="#0a0a14"/>

        <!-- neck -->
        <rect x="-40" y="0" width="80" height="100" fill="#b88860"/>

        <!-- head -->
        <ellipse cx="0" cy="-80" rx="100" ry="130" fill="#c89878"/>

        <!-- hair: vibrant multicolor fantasy -->
        <path d="M -115 -100 Q -115 -250, 0 -260 Q 115 -250, 115 -100 Q 125 0, 115 80 Q 145 180, 130 280 L 95 280 Q 115 180, 100 80 Q 110 -20, 75 -50 Q 0 -70, -75 -50 Q -110 -20, -100 80 Q -115 180, -95 280 L -130 280 Q -145 180, -115 80 Q -125 0, -115 -100 Z" fill="url(#hairAfterC)"/>

        <!-- strand details -->
        <path d="M -85 -180 Q -70 -200, -50 -210" stroke="#7a1a8a" stroke-width="3" fill="none" opacity="0.9"/>
        <path d="M -50 -210 Q -30 -220, -10 -225" stroke="#e8784a" stroke-width="3" fill="none" opacity="0.9"/>
        <path d="M 85 -180 Q 70 -200, 50 -210" stroke="#7a1a8a" stroke-width="3" fill="none" opacity="0.9"/>
        <path d="M 50 -210 Q 30 -220, 10 -225" stroke="#e8784a" stroke-width="3" fill="none" opacity="0.9"/>

        <!-- shine -->
        <path d="M -80 -60 Q -60 -90, -30 -100" stroke="#fff5d8" stroke-width="1" fill="none" opacity="0.7"/>
        <path d="M 80 -60 Q 60 -90, 30 -100" stroke="#fff5d8" stroke-width="1" fill="none" opacity="0.7"/>

        <!-- face features (smiling) -->
        <ellipse cx="-32" cy="-70" rx="8" ry="4" fill="#1a0e08"/>
        <ellipse cx="32" cy="-70" rx="8" ry="4" fill="#1a0e08"/>
        <circle cx="-30" cy="-72" r="2" fill="#fff5d8"/>
        <circle cx="34" cy="-72" r="2" fill="#fff5d8"/>
        <path d="M -15 -10 Q 0 0, 15 -10 Q 8 5, 0 5 Q -8 5, -15 -10 Z" fill="#c8523a"/>
        <!-- bright blush -->
        <ellipse cx="-45" cy="-40" rx="12" ry="6" fill="#e8784a" opacity="0.55"/>
        <ellipse cx="45" cy="-40" rx="12" ry="6" fill="#e8784a" opacity="0.55"/>
    </g>

    <!-- Big sparkles for color fantasy -->
    <g fill="#f4d870" opacity="0.85">
        <path d="M 90 100 L 96 116 L 112 122 L 96 128 L 90 144 L 84 128 L 68 122 L 84 116 Z"/>
        <path d="M 710 470 L 716 486 L 732 492 L 716 498 L 710 514 L 704 498 L 688 492 L 704 486 Z"/>
        <path d="M 670 180 L 675 192 L 687 197 L 675 202 L 670 214 L 665 202 L 653 197 L 665 192 Z"/>
        <path d="M 130 470 L 135 482 L 147 487 L 135 492 L 130 504 L 125 492 L 113 487 L 125 482 Z"/>
        <path d="M 60 320 L 64 330 L 74 334 L 64 338 L 60 348 L 56 338 L 46 334 L 56 330 Z"/>
    </g>

    <g transform="translate(640, 540)">
        <rect x="0" y="-22" width="120" height="32" rx="16" fill="#d49b3a"/>
        <text x="60" y="0" font-family="JetBrains Mono, monospace" font-size="11" fill="#050308" text-anchor="middle" letter-spacing="3">DESPUÉS</text>
    </g>

    <rect x="20" y="20" width="760" height="560" fill="none" stroke="#d49b3a" stroke-width="0.7" opacity="0.7"/>

    <rect width="800" height="600" filter="url(#grainAfterC)" opacity="0.5"/>
</svg>