<svg xmlns="http://www.w3.org/2000/svg" viewBox="0 0 600 600" preserveAspectRatio="xMidYMid slice" role="img" aria-label="Plataforma — Disney+">
    <defs>
        <linearGradient id="bgD" x1="0" y1="0" x2="1" y2="1"><stop offset="0%" stop-color="#0a0814"/><stop offset="100%" stop-color="#050308"/></linearGradient>
        <radialGradient id="haloD" cx="0.5" cy="0.45" r="0.55"><stop offset="0%" stop-color="#06b6d4" stop-opacity="0.3"/><stop offset="100%" stop-color="#06b6d4" stop-opacity="0"/></radialGradient>
        <linearGradient id="goldD" x1="0" y1="0" x2="0" y2="1"><stop offset="0%" stop-color="#fff5d8"/><stop offset="100%" stop-color="#8a5a18"/></linearGradient>
        <filter id="grainD" x="0" y="0" width="100%" height="100%"><feTurbulence type="fractalNoise" baseFrequency="0.9" numOctaves="2" seed="53"/><feColorMatrix values="0 0 0 0 0.83  0 0 0 0 0.61  0 0 0 0 0.23  0 0 0 0.18 0"/></filter>
    </defs>
    <rect width="600" height="600" fill="url(#bgD)"/><rect width="600" height="600" fill="url(#haloD)"/>
    <g transform="translate(300, 280)" opacity="0.95">
        <path d="M -180 -30 Q -100 -120 0 -120 Q 100 -120 180 -30 L 140 -10 Q 80 -80 0 -80 Q -80 -80 -140 -10 Z" fill="url(#goldD)"/>
        <path d="M -180 30 Q -100 120 0 120 Q 100 120 180 30 L 140 10 Q 80 80 0 80 Q -80 80 -140 10 Z" fill="url(#goldD)"/>
        <line x1="160" y1="-20" x2="160" y2="20" stroke="url(#goldD)" stroke-width="22" stroke-linecap="round"/>
        <line x1="180" y1="-20" x2="180" y2="20" stroke="url(#goldD)" stroke-width="22" stroke-linecap="round"/>
    </g>
    <text x="30" y="40" font-family="JetBrains Mono, monospace" font-size="10" fill="#d49b3a" opacity="0.7" letter-spacing="2">PLATFORM · DISNEY+</text>
    <text x="570" y="570" font-family="Playfair Display, serif" font-style="italic" font-size="16" fill="#e8d8c4" opacity="0.7" text-anchor="end">Disney+</text>
    <rect x="15" y="15" width="570" height="570" fill="none" stroke="#d49b3a" stroke-width="0.5" opacity="0.45"/>
    <rect x="30" y="30" width="540" height="540" fill="none" stroke="#d49b3a" stroke-width="0.5" opacity="0.2"/>
    <rect width="600" height="600" filter="url(#grainD)" opacity="0.5"/>
</svg>
