<svg xmlns="http://www.w3.org/2000/svg" viewBox="0 0 800 600" preserveAspectRatio="xMidYMid slice" role="img" aria-label="Ilustración simulada — Corte de cabello">
    <defs>
        <linearGradient id="bgSvcCorte" x1="0" y1="0" x2="1" y2="1">
            <stop offset="0%" stop-color="#1a1424"/>
            <stop offset="100%" stop-color="#050308"/>
        </linearGradient>
        <linearGradient id="goldCorte" x1="0" y1="0" x2="1" y2="1">
            <stop offset="0%" stop-color="#f4d870"/>
            <stop offset="50%" stop-color="#d49b3a"/>
            <stop offset="100%" stop-color="#8a5a18"/>
        </linearGradient>
        <radialGradient id="haloCorte" cx="0.5" cy="0.5" r="0.6">
            <stop offset="0%" stop-color="#e8784a" stop-opacity="0.25"/>
            <stop offset="100%" stop-color="#e8784a" stop-opacity="0"/>
        </radialGradient>
        <filter id="grainCorte"><feTurbulence baseFrequency="0.9" numOctaves="2" seed="21"/><feColorMatrix values="0 0 0 0 0  0 0 0 0 0  0 0 0 0 0  0 0 0 0.04 0"/><feComposite in2="SourceGraphic" operator="in"/></filter>
    </defs>

    <rect width="800" height="600" fill="url(#bgSvcCorte)"/>
    <rect width="800" height="600" fill="url(#haloCorte)"/>

    <!-- Scissors mark (oversized) -->
    <g transform="translate(400, 300)" opacity="0.92">
        <!-- blades -->
        <path d="M -150 -80 L 30 30 L 30 38 L -150 -72 Z" fill="url(#goldCorte)"/>
        <path d="M -150 80 L 30 -30 L 30 -38 L -150 72 Z" fill="url(#goldCorte)"/>
        <!-- highlight on blades -->
        <path d="M -140 -78 L 25 28" stroke="#fff5d8" stroke-width="1" opacity="0.6"/>
        <path d="M -140 78 L 25 -28" stroke="#fff5d8" stroke-width="1" opacity="0.6"/>
        <!-- pivot -->
        <circle cx="30" cy="0" r="10" fill="#1a0a08"/>
        <circle cx="30" cy="0" r="10" fill="none" stroke="url(#goldCorte)" stroke-width="2"/>
        <!-- handles -->
        <ellipse cx="-160" cy="-110" rx="42" ry="30" fill="none" stroke="url(#goldCorte)" stroke-width="14"/>
        <ellipse cx="-160" cy="110" rx="42" ry="30" fill="none" stroke="url(#goldCorte)" stroke-width="14"/>
        <!-- handle inner shadow -->
        <ellipse cx="-160" cy="-110" rx="32" ry="22" fill="none" stroke="#1a0a08" stroke-width="2"/>
        <ellipse cx="-160" cy="110" rx="32" ry="22" fill="none" stroke="#1a0a08" stroke-width="2"/>
    </g>

    <!-- Hair strands drifting (motion lines) -->
    <g stroke="#e8d8c4" stroke-width="1.5" fill="none" opacity="0.35">
        <path d="M 60 80 Q 200 60, 350 100"/>
        <path d="M 50 140 Q 220 130, 380 160"/>
        <path d="M 70 200 Q 250 195, 400 220"/>
        <path d="M 50 460 Q 220 470, 380 440"/>
        <path d="M 60 520 Q 200 530, 360 510"/>
    </g>

    <!-- Frame -->
    <rect x="20" y="20" width="760" height="560" fill="none" stroke="#d49b3a" stroke-width="0.5" opacity="0.5"/>
    <rect x="30" y="30" width="740" height="540" fill="none" stroke="#d49b3a" stroke-width="0.3" opacity="0.3"/>

    <!-- Labels -->
    <text x="50" y="60" font-family="Playfair Display, serif" font-style="italic" font-size="14" fill="#e8d8c4" opacity="0.6">PL. III — SERVICIOS</text>
    <text x="750" y="60" font-family="JetBrains Mono, monospace" font-size="11" fill="#d49b3a" text-anchor="end" opacity="0.7">Nº 001 — CORTE</text>

    <text x="400" y="540" font-family="Playfair Display, serif" font-style="italic" font-size="22" fill="#e8d8c4" text-anchor="middle">Corte de cabello</text>
    <text x="400" y="565" font-family="JetBrains Mono, monospace" font-size="10" fill="#d49b3a" text-anchor="middle" letter-spacing="2">DESDE 80 BS · 45 MIN</text>

    <rect width="800" height="600" filter="url(#grainCorte)" opacity="0.6"/>
</svg>