<svg xmlns="http://www.w3.org/2000/svg" viewBox="0 0 800 600" preserveAspectRatio="xMidYMid slice" role="img" aria-label="Después — balayage y corte">
    <defs>
        <linearGradient id="bgAfterB" x1="0" y1="0" x2="1" y2="1">
            <stop offset="0%" stop-color="#1a1424"/>
            <stop offset="100%" stop-color="#050308"/>
        </linearGradient>
        <linearGradient id="hairAfterB" x1="0" y1="0" x2="0" y2="1">
            <stop offset="0%" stop-color="#3a1f0e"/>
            <stop offset="50%" stop-color="#7a4818"/>
            <stop offset="80%" stop-color="#d49b3a"/>
            <stop offset="100%" stop-color="#f4d870"/>
        </linearGradient>
        <radialGradient id="haloAfterB" cx="0.5" cy="0.3" r="0.6">
            <stop offset="0%" stop-color="#d49b3a" stop-opacity="0.4"/>
            <stop offset="100%" stop-color="#d49b3a" stop-opacity="0"/>
        </radialGradient>
        <filter id="grainAfterB"><feTurbulence baseFrequency="0.9" numOctaves="2" seed="92"/><feColorMatrix values="0 0 0 0 0  0 0 0 0 0  0 0 0 0 0  0 0 0 0.04 0"/><feComposite in2="SourceGraphic" operator="in"/></filter>
    </defs>

    <rect width="800" height="600" fill="url(#bgAfterB)"/>
    <rect width="800" height="600" fill="url(#haloAfterB)"/>

    <text x="40" y="50" font-family="JetBrains Mono, monospace" font-size="10" fill="#d49b3a" opacity="0.7" letter-spacing="2">RESULTADO · BALAYAGE + CORTE</text>

    <g transform="translate(400, 360)">
        <!-- shoulders -->
        <path d="M -180 280 L -180 180 Q -100 100, 0 100 Q 100 100, 180 180 L 180 280 Z" fill="#0a0a14"/>

        <!-- neck -->
        <rect x="-40" y="0" width="80" height="100" fill="#b88860"/>

        <!-- head -->
        <ellipse cx="0" cy="-80" rx="100" ry="130" fill="#c89878"/>

        <!-- hair: balayage (root brown → caramel tips) -->
        <path d="M -110 -100 Q -110 -240, 0 -250 Q 110 -240, 110 -100 Q 120 0, 110 80 Q 140 180, 100 240 L 70 240 Q 90 180, 80 80 Q 90 -20, 60 -50 Q 0 -70, -60 -50 Q -90 -20, -80 80 Q -90 180, -70 240 L -100 240 Q -140 180, -110 80 Q -120 0, -110 -100 Z" fill="url(#hairAfterB)"/>

        <!-- shine highlights -->
        <path d="M -70 -160 Q -50 -180, 0 -180" stroke="#fff5d8" stroke-width="2" fill="none" opacity="0.8"/>
        <path d="M 70 -160 Q 50 -180, 0 -180" stroke="#fff5d8" stroke-width="2" fill="none" opacity="0.8"/>
        <path d="M -80 -60 Q -60 -90, -30 -100" stroke="#fff5d8" stroke-width="1" fill="none" opacity="0.7"/>
        <path d="M 80 -60 Q 60 -90, 30 -100" stroke="#fff5d8" stroke-width="1" fill="none" opacity="0.7"/>

        <!-- face features (subtle smile) -->
        <ellipse cx="-32" cy="-70" rx="8" ry="4" fill="#1a0e08"/>
        <ellipse cx="32" cy="-70" rx="8" ry="4" fill="#1a0e08"/>
        <circle cx="-30" cy="-72" r="2" fill="#fff5d8"/>
        <circle cx="34" cy="-72" r="2" fill="#fff5d8"/>
        <path d="M -15 -10 Q 0 0, 15 -10 Q 8 5, 0 5 Q -8 5, -15 -10 Z" fill="#c8523a"/>
        <!-- blush -->
        <ellipse cx="-45" cy="-40" rx="10" ry="5" fill="#e8784a" opacity="0.5"/>
        <ellipse cx="45" cy="-40" rx="10" ry="5" fill="#e8784a" opacity="0.5"/>
    </g>

    <!-- sparkles (transformation) -->
    <g fill="#f4d870" opacity="0.8">
        <path d="M 100 120 L 105 132 L 117 137 L 105 142 L 100 154 L 95 142 L 83 137 L 95 132 Z"/>
        <path d="M 700 480 L 705 492 L 717 497 L 705 502 L 700 514 L 695 502 L 683 497 L 695 492 Z"/>
        <path d="M 680 200 L 683 208 L 691 211 L 683 214 L 680 222 L 677 214 L 669 211 L 677 208 Z"/>
        <path d="M 120 460 L 124 470 L 134 474 L 124 478 L 120 488 L 116 478 L 106 474 L 116 470 Z"/>
    </g>

    <!-- "DESPUÉS" tag -->
    <g transform="translate(640, 540)">
        <rect x="0" y="-22" width="120" height="32" rx="16" fill="#d49b3a"/>
        <text x="60" y="0" font-family="JetBrains Mono, monospace" font-size="11" fill="#050308" text-anchor="middle" letter-spacing="3">DESPUÉS</text>
    </g>

    <rect x="20" y="20" width="760" height="560" fill="none" stroke="#d49b3a" stroke-width="0.7" opacity="0.7"/>

    <rect width="800" height="600" filter="url(#grainAfterB)" opacity="0.5"/>
</svg>