<svg xmlns="http://www.w3.org/2000/svg" viewBox="0 0 800 600" preserveAspectRatio="xMidYMid slice" role="img" aria-label="Antes — cabello sin tratamiento">
    <defs>
        <linearGradient id="bgBeforeB" x1="0" y1="0" x2="1" y2="1">
            <stop offset="0%" stop-color="#1a1424"/>
            <stop offset="100%" stop-color="#0c0a14"/>
        </linearGradient>
        <linearGradient id="hairBeforeB" x1="0" y1="0" x2="0" y2="1">
            <stop offset="0%" stop-color="#3a2515"/>
            <stop offset="100%" stop-color="#1a0e08"/>
        </linearGradient>
        <filter id="grainBeforeB"><feTurbulence baseFrequency="0.9" numOctaves="2" seed="91"/><feColorMatrix values="0 0 0 0 0  0 0 0 0 0  0 0 0 0 0  0 0 0 0.04 0"/><feComposite in2="SourceGraphic" operator="in"/></filter>
    </defs>

    <rect width="800" height="600" fill="url(#bgBeforeB)"/>

    <!-- Date stamp corner -->
    <text x="40" y="50" font-family="JetBrains Mono, monospace" font-size="10" fill="#e8784a" opacity="0.5" letter-spacing="2">ESTADO INICIAL · ENE 2026</text>

    <!-- Dull hair, mid-length, plain color -->
    <g transform="translate(400, 360)">
        <!-- shoulders -->
        <path d="M -180 280 L -180 180 Q -100 100, 0 100 Q 100 100, 180 180 L 180 280 Z" fill="#1a1424"/>

        <!-- neck -->
        <rect x="-40" y="0" width="80" height="100" fill="#b88860"/>

        <!-- head -->
        <ellipse cx="0" cy="-80" rx="100" ry="130" fill="#c89878"/>

        <!-- hair: flat dark brown, no shine -->
        <path d="M -110 -100 Q -110 -240, 0 -250 Q 110 -240, 110 -100 Q 120 0, 110 80 Q 140 180, 110 250 L 80 250 Q 100 180, 90 80 Q 100 -20, 70 -50 Q 0 -70, -70 -50 Q -100 -20, -90 80 Q -100 180, -80 250 L -110 250 Q -140 180, -110 80 Q -120 0, -110 -100 Z" fill="url(#hairBeforeB)"/>

        <!-- split ends / frizz (small irregularities) -->
        <g stroke="#1a0e08" stroke-width="1" fill="none" opacity="0.7">
            <line x1="-100" y1="200" x2="-95" y2="225"/>
            <line x1="-80" y1="220" x2="-78" y2="245"/>
            <line x1="80" y1="220" x2="78" y2="245"/>
            <line x1="100" y1="200" x2="95" y2="225"/>
        </g>

        <!-- face features (neutral) -->
        <ellipse cx="-32" cy="-70" rx="8" ry="4" fill="#1a0e08"/>
        <ellipse cx="32" cy="-70" rx="8" ry="4" fill="#1a0e08"/>
        <path d="M -12 -10 Q 0 -5, 12 -10" stroke="#8a3520" stroke-width="2" fill="none" stroke-linecap="round"/>
    </g>

    <!-- "ANTES" tag -->
    <g transform="translate(60, 540)">
        <rect x="0" y="-22" width="100" height="32" rx="16" fill="#1a0e08" stroke="#e8784a" stroke-width="1"/>
        <text x="50" y="0" font-family="JetBrains Mono, monospace" font-size="11" fill="#e8784a" text-anchor="middle" letter-spacing="3">ANTES</text>
    </g>

    <!-- Subtle gold frame -->
    <rect x="20" y="20" width="760" height="560" fill="none" stroke="#d49b3a" stroke-width="0.5" opacity="0.3"/>

    <rect width="800" height="600" filter="url(#grainBeforeB)" opacity="0.5"/>
</svg>