<svg xmlns="http://www.w3.org/2000/svg" viewBox="0 0 600 600" preserveAspectRatio="xMidYMid slice" role="img" aria-label="Galería — Tratamiento keratina">
    <defs>
        <linearGradient id="bgGKer" x1="0" y1="0" x2="1" y2="1"><stop offset="0%" stop-color="#1a1424"/><stop offset="100%" stop-color="#050308"/></linearGradient>
        <radialGradient id="haloKer" cx="0.5" cy="0.45" r="0.6"><stop offset="0%" stop-color="#d49b3a" stop-opacity="0.4"/><stop offset="100%" stop-color="#d49b3a" stop-opacity="0"/></radialGradient>
        <linearGradient id="hairKer" x1="0" y1="0" x2="0" y2="1"><stop offset="0%" stop-color="#2a1408"/><stop offset="60%" stop-color="#5a3018"/><stop offset="100%" stop-color="#8a5a18"/></linearGradient>
        <linearGradient id="dropKer" x1="0" y1="0" x2="0" y2="1"><stop offset="0%" stop-color="#fff5d8"/><stop offset="100%" stop-color="#a85828"/></linearGradient>
        <filter id="grainGKer"><feTurbulence baseFrequency="0.9" numOctaves="2" seed="206"/><feColorMatrix values="0 0 0 0 0  0 0 0 0 0  0 0 0 0 0  0 0 0 0.04 0"/><feComposite in2="SourceGraphic" operator="in"/></filter>
    </defs>
    <rect width="600" height="600" fill="url(#bgGKer)"/>
    <rect width="600" height="600" fill="url(#haloKer)"/>
    <g transform="translate(300, 320)">
        <path d="M -150 280 L -150 180 Q -80 120, 0 120 Q 80 120, 150 180 L 150 280 Z" fill="#0a0a14"/>
        <rect x="-30" y="20" width="60" height="100" fill="#c89878"/>
        <ellipse cx="0" cy="-50" rx="85" ry="110" fill="#c89878"/>
        <!-- ultra-shiny hair (keratina effect) -->
        <path d="M -100 -90 Q -110 -200, 0 -215 Q 110 -200, 100 -90 Q 120 0, 110 80 Q 130 220, 100 250 L 65 250 Q 90 220, 80 80 Q 95 -20, 55 -40 Q 0 -55, -55 -40 Q -95 -20, -80 80 Q -90 220, -65 250 L -100 250 Q -130 220, -110 80 Q -120 0, -100 -90 Z" fill="url(#hairKer)"/>
        <!-- shine streaks (keratina gloss) -->
        <path d="M -70 -170 Q -50 -190, -10 -195" stroke="#fff5d8" stroke-width="2" fill="none" opacity="0.85"/>
        <path d="M 70 -170 Q 50 -190, 10 -195" stroke="#fff5d8" stroke-width="2" fill="none" opacity="0.85"/>
        <path d="M -75 -50 Q -55 -80, -30 -90" stroke="#fff5d8" stroke-width="1.5" fill="none" opacity="0.7"/>
        <path d="M 75 -50 Q 55 -80, 30 -90" stroke="#fff5d8" stroke-width="1.5" fill="none" opacity="0.7"/>
        <ellipse cx="-30" cy="-50" rx="6" ry="3" fill="#1a0e08"/>
        <ellipse cx="30" cy="-50" rx="6" ry="3" fill="#1a0e08"/>
        <path d="M -10 -10 Q 0 -3, 10 -10" stroke="#8a3520" stroke-width="1.5" fill="none" stroke-linecap="round"/>
    </g>
    <!-- drops (keratina liquid) -->
    <g fill="url(#dropKer)" opacity="0.85">
        <path d="M 460 200 Q 458 215, 462 230 Q 470 215, 462 200 Z"/>
        <path d="M 510 290 Q 508 302, 512 314 Q 518 302, 512 290 Z"/>
    </g>
    <text x="40" y="50" font-family="JetBrains Mono, monospace" font-size="10" fill="#d49b3a" opacity="0.7" letter-spacing="2">Nº 019 · KERATINA</text>
    <text x="560" y="570" font-family="Playfair Display, serif" font-style="italic" font-size="14" fill="#e8d8c4" opacity="0.7" text-anchor="end">Tratamiento keratina</text>
    <rect x="15" y="15" width="570" height="570" fill="none" stroke="#d49b3a" stroke-width="0.5" opacity="0.5"/>
    <rect width="600" height="600" filter="url(#grainGKer)" opacity="0.5"/>
</svg>