<svg xmlns="http://www.w3.org/2000/svg" viewBox="0 0 600 600" preserveAspectRatio="xMidYMid slice" role="img" aria-label="Galería — Corte masculino fade">
    <defs>
        <linearGradient id="bgGFd" x1="0" y1="0" x2="1" y2="1"><stop offset="0%" stop-color="#0a0a14"/><stop offset="100%" stop-color="#050308"/></linearGradient>
        <linearGradient id="hairFade" x1="0" y1="0" x2="0" y2="1"><stop offset="0%" stop-color="#1a0a08"/><stop offset="100%" stop-color="#0a0404"/></linearGradient>
        <radialGradient id="haloFade" cx="0.5" cy="0.4" r="0.55"><stop offset="0%" stop-color="#d49b3a" stop-opacity="0.35"/><stop offset="100%" stop-color="#d49b3a" stop-opacity="0"/></radialGradient>
        <filter id="grainGFd"><feTurbulence baseFrequency="0.9" numOctaves="2" seed="204"/><feColorMatrix values="0 0 0 0 0  0 0 0 0 0  0 0 0 0 0  0 0 0 0.04 0"/><feComposite in2="SourceGraphic" operator="in"/></filter>
    </defs>
    <rect width="600" height="600" fill="url(#bgGFd)"/>
    <rect width="600" height="600" fill="url(#haloFade)"/>
    <g transform="translate(300, 320)">
        <!-- shoulders black shirt -->
        <path d="M -150 280 L -150 180 Q -80 120, 0 120 Q 80 120, 150 180 L 150 280 Z" fill="#0a0a14"/>
        <rect x="-30" y="20" width="60" height="100" fill="#9c6a48"/>
        <!-- beard hint -->
        <ellipse cx="0" cy="40" rx="55" ry="40" fill="#1a0a08" opacity="0.5"/>
        <!-- head -->
        <ellipse cx="0" cy="-50" rx="85" ry="110" fill="#c89878"/>
        <!-- fade hair (short) -->
        <path d="M -90 -100 Q -90 -200, 0 -210 Q 90 -200, 90 -100 Q 80 -130, 50 -150 Q 0 -160, -50 -150 Q -80 -130, -90 -100 Z" fill="url(#hairFade)"/>
        <!-- fade line -->
        <line x1="-90" y1="-30" x2="-70" y2="-30" stroke="#0a0404" stroke-width="3"/>
        <line x1="90" y1="-30" x2="70" y2="-30" stroke="#0a0404" stroke-width="3"/>
        <!-- eyebrows -->
        <path d="M -42 -65 Q -30 -70, -18 -65" stroke="#0a0404" stroke-width="3" fill="none"/>
        <path d="M 18 -65 Q 30 -70, 42 -65" stroke="#0a0404" stroke-width="3" fill="none"/>
        <ellipse cx="-30" cy="-50" rx="6" ry="3" fill="#0a0404"/>
        <ellipse cx="30" cy="-50" rx="6" ry="3" fill="#0a0404"/>
        <!-- mustache -->
        <path d="M -15 0 Q 0 -3, 15 0 Q 10 5, 0 5 Q -10 5, -15 0 Z" fill="#0a0404"/>
    </g>
    <text x="40" y="50" font-family="JetBrains Mono, monospace" font-size="10" fill="#d49b3a" opacity="0.7" letter-spacing="2">Nº 017 · FADE</text>
    <text x="560" y="570" font-family="Playfair Display, serif" font-style="italic" font-size="14" fill="#e8d8c4" opacity="0.7" text-anchor="end">Corte fade</text>
    <rect x="15" y="15" width="570" height="570" fill="none" stroke="#d49b3a" stroke-width="0.5" opacity="0.5"/>
    <rect width="600" height="600" filter="url(#grainGFd)" opacity="0.5"/>
</svg>