<svg xmlns="http://www.w3.org/2000/svg" viewBox="0 0 600 600" preserveAspectRatio="xMidYMid slice" role="img" aria-label="Galería — Corte bob">
    <defs>
        <linearGradient id="bgGBob" x1="0" y1="0" x2="1" y2="1"><stop offset="0%" stop-color="#1a1424"/><stop offset="100%" stop-color="#050308"/></linearGradient>
        <linearGradient id="hairBob" x1="0" y1="0" x2="0" y2="1"><stop offset="0%" stop-color="#3a1f1a"/><stop offset="60%" stop-color="#5a2a20"/><stop offset="100%" stop-color="#1a0a08"/></linearGradient>
        <radialGradient id="haloBob" cx="0.5" cy="0.4" r="0.55"><stop offset="0%" stop-color="#e8784a" stop-opacity="0.4"/><stop offset="100%" stop-color="#e8784a" stop-opacity="0"/></radialGradient>
        <filter id="grainGBob"><feTurbulence baseFrequency="0.9" numOctaves="2" seed="201"/><feColorMatrix values="0 0 0 0 0  0 0 0 0 0  0 0 0 0 0  0 0 0 0.04 0"/><feComposite in2="SourceGraphic" operator="in"/></filter>
    </defs>
    <rect width="600" height="600" fill="url(#bgGBob)"/>
    <rect width="600" height="600" fill="url(#haloBob)"/>
    <g transform="translate(300, 320)">
        <path d="M -150 280 L -150 180 Q -80 120, 0 120 Q 80 120, 150 180 L 150 280 Z" fill="#0a0a14"/>
        <rect x="-30" y="20" width="60" height="100" fill="#c89878"/>
        <ellipse cx="0" cy="-50" rx="85" ry="110" fill="#c89878"/>
        <!-- bob haircut: straight line below ears -->
        <path d="M -100 -90 Q -110 -200, 0 -215 Q 110 -200, 100 -90 Q 110 -30, 100 30 L 60 30 L 50 -10 Q 0 -30, -50 -10 L -60 30 L -100 30 Q -110 -30, -100 -90 Z" fill="url(#hairBob)"/>
        <path d="M -85 -150 Q -50 -180, 0 -190" stroke="#d49b3a" stroke-width="1.5" fill="none" opacity="0.6"/>
        <ellipse cx="-30" cy="-50" rx="6" ry="3" fill="#1a0a08"/>
        <ellipse cx="30" cy="-50" rx="6" ry="3" fill="#1a0a08"/>
        <path d="M -10 -10 Q 0 -5, 10 -10" stroke="#8a3520" stroke-width="1.5" fill="none" stroke-linecap="round"/>
    </g>
    <text x="40" y="50" font-family="JetBrains Mono, monospace" font-size="10" fill="#d49b3a" opacity="0.7" letter-spacing="2">Nº 014 · CORTE BOB</text>
    <text x="560" y="570" font-family="Playfair Display, serif" font-style="italic" font-size="14" fill="#e8d8c4" opacity="0.7" text-anchor="end">Corte bob</text>
    <rect x="15" y="15" width="570" height="570" fill="none" stroke="#d49b3a" stroke-width="0.5" opacity="0.5"/>
    <rect width="600" height="600" filter="url(#grainGBob)" opacity="0.5"/>
</svg>