<svg xmlns="http://www.w3.org/2000/svg" viewBox="0 0 600 600" preserveAspectRatio="xMidYMid slice" role="img" aria-label="Galería — Color fantasía">
    <defs>
        <linearGradient id="bgGCol" x1="0" y1="0" x2="1" y2="1"><stop offset="0%" stop-color="#2a1430"/><stop offset="100%" stop-color="#050308"/></linearGradient>
        <linearGradient id="hairCol" x1="0" y1="0" x2="0" y2="1"><stop offset="0%" stop-color="#7a1a8a"/><stop offset="40%" stop-color="#e8784a"/><stop offset="80%" stop-color="#f4d870"/><stop offset="100%" stop-color="#fff5d8"/></linearGradient>
        <radialGradient id="haloCol" cx="0.5" cy="0.4" r="0.6"><stop offset="0%" stop-color="#e8784a" stop-opacity="0.45"/><stop offset="100%" stop-color="#e8784a" stop-opacity="0"/></radialGradient>
        <filter id="grainGCol"><feTurbulence baseFrequency="0.9" numOctaves="2" seed="205"/><feColorMatrix values="0 0 0 0 0  0 0 0 0 0  0 0 0 0 0  0 0 0 0.04 0"/><feComposite in2="SourceGraphic" operator="in"/></filter>
    </defs>
    <rect width="600" height="600" fill="url(#bgGCol)"/>
    <rect width="600" height="600" fill="url(#haloCol)"/>
    <g transform="translate(300, 320)">
        <path d="M -150 280 L -150 180 Q -80 120, 0 120 Q 80 120, 150 180 L 150 280 Z" fill="#0a0a14"/>
        <rect x="-30" y="20" width="60" height="100" fill="#c89878"/>
        <ellipse cx="0" cy="-50" rx="85" ry="110" fill="#c89878"/>
        <path d="M -100 -90 Q -110 -200, 0 -215 Q 110 -200, 100 -90 Q 120 0, 110 80 Q 130 200, 105 240 L 65 240 Q 90 200, 75 80 Q 90 -20, 55 -40 Q 0 -55, -55 -40 Q -90 -20, -75 80 Q -90 200, -65 240 L -105 240 Q -130 200, -110 80 Q -120 0, -100 -90 Z" fill="url(#hairCol)"/>
        <path d="M -70 -150 Q -50 -170, -25 -180" stroke="#7a1a8a" stroke-width="2" fill="none" opacity="0.85"/>
        <path d="M 70 -150 Q 50 -170, 25 -180" stroke="#7a1a8a" stroke-width="2" fill="none" opacity="0.85"/>
        <ellipse cx="-30" cy="-50" rx="6" ry="3" fill="#1a0e08"/>
        <ellipse cx="30" cy="-50" rx="6" ry="3" fill="#1a0e08"/>
        <path d="M -10 -10 Q 0 -3, 10 -10" stroke="#8a3520" stroke-width="1.5" fill="none" stroke-linecap="round"/>
    </g>
    <g fill="#f4d870" opacity="0.85">
        <path d="M 80 90 L 85 102 L 97 107 L 85 112 L 80 124 L 75 112 L 63 107 L 75 102 Z"/>
        <path d="M 510 470 L 515 482 L 527 487 L 515 492 L 510 504 L 505 492 L 493 487 L 505 482 Z"/>
    </g>
    <text x="40" y="50" font-family="JetBrains Mono, monospace" font-size="10" fill="#d49b3a" opacity="0.7" letter-spacing="2">Nº 018 · COLOR FANTASÍA</text>
    <text x="560" y="570" font-family="Playfair Display, serif" font-style="italic" font-size="14" fill="#e8d8c4" opacity="0.7" text-anchor="end">Color fantasía</text>
    <rect x="15" y="15" width="570" height="570" fill="none" stroke="#d49b3a" stroke-width="0.5" opacity="0.5"/>
    <rect width="600" height="600" filter="url(#grainGCol)" opacity="0.5"/>
</svg>