<svg xmlns="http://www.w3.org/2000/svg" viewBox="0 0 600 600" preserveAspectRatio="xMidYMid slice" role="img" aria-label="Galería — Peinado de novia">
    <defs>
        <linearGradient id="bgGNov" x1="0" y1="0" x2="1" y2="1"><stop offset="0%" stop-color="#1a1424"/><stop offset="100%" stop-color="#050308"/></linearGradient>
        <radialGradient id="haloNov" cx="0.5" cy="0.4" r="0.6"><stop offset="0%" stop-color="#f4d870" stop-opacity="0.4"/><stop offset="100%" stop-color="#e8784a" stop-opacity="0"/></radialGradient>
        <linearGradient id="veilGNov" x1="0" y1="0" x2="0" y2="1"><stop offset="0%" stop-color="#f4e4c8" stop-opacity="0.7"/><stop offset="100%" stop-color="#e8d8c4" stop-opacity="0.15"/></linearGradient>
        <linearGradient id="goldNov" x1="0" y1="0" x2="1" y2="1"><stop offset="0%" stop-color="#fff5d8"/><stop offset="50%" stop-color="#d49b3a"/><stop offset="100%" stop-color="#8a5a18"/></linearGradient>
        <filter id="grainGNov"><feTurbulence baseFrequency="0.9" numOctaves="2" seed="203"/><feColorMatrix values="0 0 0 0 0  0 0 0 0 0  0 0 0 0 0  0 0 0 0.04 0"/><feComposite in2="SourceGraphic" operator="in"/></filter>
    </defs>
    <rect width="600" height="600" fill="url(#bgGNov)"/>
    <rect width="600" height="600" fill="url(#haloNov)"/>
    <!-- halo -->
    <ellipse cx="300" cy="180" rx="80" ry="12" fill="none" stroke="url(#goldNov)" stroke-width="1.5" opacity="0.85"/>
    <ellipse cx="300" cy="180" rx="80" ry="12" fill="none" stroke="#fff5d8" stroke-width="0.3" opacity="0.7"/>
    <g transform="translate(300, 320)">
        <!-- veil -->
        <path d="M -120 -10 Q -150 80, -135 200 L 135 200 Q 150 80, 120 -10 Q 70 -5, 0 -5 Q -70 -5, -120 -10 Z" fill="url(#veilGNov)"/>
        <!-- shoulders -->
        <path d="M -150 280 L -150 180 Q -80 120, 0 120 Q 80 120, 150 180 L 150 280 Z" fill="#0a0a14"/>
        <!-- neck -->
        <rect x="-30" y="20" width="60" height="100" fill="#c89878"/>
        <!-- head -->
        <ellipse cx="0" cy="-50" rx="75" ry="100" fill="#c89878"/>
        <!-- updo bun -->
        <circle cx="0" cy="-30" r="55" fill="#d49b3a" opacity="0.7"/>
        <circle cx="0" cy="-30" r="55" fill="none" stroke="#8a5a18" stroke-width="1"/>
        <!-- tiara -->
        <path d="M -35 -70 Q 0 -85, 35 -70" stroke="url(#goldNov)" stroke-width="2" fill="none"/>
        <circle cx="0" cy="-83" r="3" fill="#f4d870"/>
        <!-- eyes -->
        <ellipse cx="-22" cy="-50" rx="5" ry="2.5" fill="#1a0e08"/>
        <ellipse cx="22" cy="-50" rx="5" ry="2.5" fill="#1a0e08"/>
        <!-- lips -->
        <path d="M -10 0 Q 0 5, 10 0 Q 5 8, 0 8 Q -5 8, -10 0 Z" fill="#c8523a"/>
    </g>
    <g fill="#f4d870" opacity="0.7">
        <circle cx="100" cy="100" r="2.5"/><circle cx="500" cy="120" r="2.5"/>
        <circle cx="80" cy="450" r="2"/><circle cx="520" cy="430" r="2"/>
    </g>
    <text x="40" y="50" font-family="JetBrains Mono, monospace" font-size="10" fill="#d49b3a" opacity="0.7" letter-spacing="2">Nº 016 · NOVIA</text>
    <text x="560" y="570" font-family="Playfair Display, serif" font-style="italic" font-size="14" fill="#e8d8c4" opacity="0.7" text-anchor="end">Peinado de novia</text>
    <rect x="15" y="15" width="570" height="570" fill="none" stroke="#d49b3a" stroke-width="0.5" opacity="0.5"/>
    <rect width="600" height="600" filter="url(#grainGNov)" opacity="0.5"/>
</svg>