<svg xmlns="http://www.w3.org/2000/svg" viewBox="0 0 1200 900" preserveAspectRatio="xMidYMid slice" role="img" aria-label="Hero — Estudio Camila, peluquería y estética">
    <defs>
        <linearGradient id="bgHero" x1="0" y1="0" x2="1" y2="1">
            <stop offset="0%" stop-color="#1a1424"/>
            <stop offset="50%" stop-color="#241830"/>
            <stop offset="100%" stop-color="#050308"/>
        </linearGradient>
        <radialGradient id="haloHero" cx="0.5" cy="0.4" r="0.55">
            <stop offset="0%" stop-color="#e8784a" stop-opacity="0.5"/>
            <stop offset="100%" stop-color="#e8784a" stop-opacity="0"/>
        </radialGradient>
        <radialGradient id="goldHaloHero" cx="0.7" cy="0.3" r="0.4">
            <stop offset="0%" stop-color="#d49b3a" stop-opacity="0.35"/>
            <stop offset="100%" stop-color="#d49b3a" stop-opacity="0"/>
        </radialGradient>
        <linearGradient id="hairHero" x1="0" y1="0" x2="0" y2="1">
            <stop offset="0%" stop-color="#5a2818"/>
            <stop offset="50%" stop-color="#8a3818"/>
            <stop offset="100%" stop-color="#3a1a0e"/>
        </linearGradient>
        <linearGradient id="skinHero" x1="0" y1="0" x2="0" y2="1">
            <stop offset="0%" stop-color="#e0b890"/>
            <stop offset="100%" stop-color="#b88860"/>
        </linearGradient>
        <linearGradient id="scissorGold" x1="0" y1="0" x2="1" y2="1">
            <stop offset="0%" stop-color="#fff5d8"/>
            <stop offset="50%" stop-color="#d49b3a"/>
            <stop offset="100%" stop-color="#8a5a18"/>
        </linearGradient>
        <filter id="grainHero"><feTurbulence baseFrequency="0.9" numOctaves="2" seed="11"/><feColorMatrix values="0 0 0 0 0  0 0 0 0 0  0 0 0 0 0  0 0 0 0.04 0"/><feComposite in2="SourceGraphic" operator="in"/></filter>
    </defs>

    <!-- Background -->
    <rect width="1200" height="900" fill="url(#bgHero)"/>
    <rect width="1200" height="900" fill="url(#haloHero)"/>
    <rect width="1200" height="900" fill="url(#goldHaloHero)"/>

    <!-- Subtle mirror reflection hint (vertical line in center-right) -->
    <rect x="780" y="120" width="3" height="660" fill="#d49b3a" opacity="0.15"/>

    <!-- Backdrop curtain lines (suggesting studio environment) -->
    <g opacity="0.18">
        <line x1="50" y1="0" x2="50" y2="900" stroke="#d49b3a" stroke-width="1"/>
        <line x1="1150" y1="0" x2="1150" y2="900" stroke="#d49b3a" stroke-width="1"/>
    </g>

    <!-- ===== Main subject: stylized woman with flowing hair ===== -->
    <g transform="translate(720, 480)">
        <!-- Shoulders / blouse -->
        <path d="M -240 420 L -240 280 Q -120 200, 0 200 Q 120 200, 240 280 L 240 420 Z" fill="#0a0a14"/>
        <path d="M -240 420 L -240 280 Q -120 200, 0 200 Q 120 200, 240 280 L 240 420 Z" fill="none" stroke="#d49b3a" stroke-width="0.5" opacity="0.5"/>
        <!-- blouse v-neck collar -->
        <path d="M -50 200 L 0 280 L 50 200" fill="none" stroke="#d49b3a" stroke-width="0.7" opacity="0.6"/>
        <!-- gold accent on blouse -->
        <path d="M -100 320 L 100 320" stroke="#d49b3a" stroke-width="1" opacity="0.4"/>

        <!-- Neck -->
        <rect x="-50" y="120" width="100" height="100" fill="url(#skinHero)"/>

        <!-- Earring left -->
        <circle cx="-118" cy="-50" r="5" fill="#d49b3a"/>
        <circle cx="-118" cy="-30" r="3" fill="#d49b3a"/>
        <!-- Earring right -->
        <circle cx="118" cy="-50" r="5" fill="#d49b3a"/>
        <circle cx="118" cy="-30" r="3" fill="#d49b3a"/>

        <!-- Head -->
        <ellipse cx="0" cy="-50" rx="105" ry="135" fill="url(#skinHero)"/>

        <!-- Hair (large, flowing, side-swept — the focal point) -->
        <path d="M -115 -80 Q -125 -220, 0 -240 Q 130 -225, 115 -80 Q 140 0, 130 90 Q 170 200, 145 320 L 95 320 Q 130 200, 115 90 Q 125 0, 75 -30 Q 0 -50, -75 -30 Q -125 0, -115 90 Q -130 200, -95 320 L -145 320 Q -170 200, -130 90 Q -140 0, -115 -80 Z" fill="url(#hairHero)"/>

        <!-- Hair highlights (coral balayage) -->
        <path d="M -90 -160 Q -50 -200, 0 -210" stroke="#e8784a" stroke-width="2" fill="none" opacity="0.7"/>
        <path d="M 90 -160 Q 50 -200, 0 -210" stroke="#e8784a" stroke-width="2" fill="none" opacity="0.7"/>
        <path d="M -85 -50 Q -60 -80, -30 -90" stroke="#d49b3a" stroke-width="1.5" fill="none" opacity="0.7"/>
        <path d="M 85 -50 Q 60 -80, 30 -90" stroke="#d49b3a" stroke-width="1.5" fill="none" opacity="0.7"/>
        <path d="M -100 100 Q -80 160, -90 220" stroke="#d49b3a" stroke-width="1.2" fill="none" opacity="0.5"/>
        <path d="M 100 100 Q 80 160, 90 220" stroke="#d49b3a" stroke-width="1.2" fill="none" opacity="0.5"/>

        <!-- Hair shine (specular highlights) -->
        <path d="M -50 -180 Q -10 -210, 20 -200" stroke="#fff5d8" stroke-width="2" fill="none" opacity="0.7"/>
        <path d="M 50 -180 Q 10 -210, -20 -200" stroke="#fff5d8" stroke-width="2" fill="none" opacity="0.7"/>

        <!-- Face features -->
        <ellipse cx="-32" cy="-50" rx="9" ry="5" fill="#1a0e08"/>
        <ellipse cx="32" cy="-50" rx="9" ry="5" fill="#1a0e08"/>
        <circle cx="-30" cy="-52" r="2" fill="#fff5d8"/>
        <circle cx="34" cy="-52" r="2" fill="#fff5d8"/>
        <!-- eyelashes -->
        <path d="M -42 -60 Q -32 -64, -22 -60" stroke="#1a0e08" stroke-width="1.5" fill="none"/>
        <path d="M 22 -60 Q 32 -64, 42 -60" stroke="#1a0e08" stroke-width="1.5" fill="none"/>
        <!-- eyebrows -->
        <path d="M -45 -75 Q -32 -80, -19 -75" stroke="#5a2818" stroke-width="2.5" fill="none" stroke-linecap="round"/>
        <path d="M 19 -75 Q 32 -80, 45 -75" stroke="#5a2818" stroke-width="2.5" fill="none" stroke-linecap="round"/>
        <!-- nose -->
        <path d="M 0 -25 Q -3 0, -5 15 Q 0 18, 5 15 Q 3 0, 0 -25" fill="none" stroke="#a07048" stroke-width="1.2" opacity="0.6"/>
        <!-- lips -->
        <path d="M -15 40 Q 0 48, 15 40 Q 8 50, 0 50 Q -8 50, -15 40 Z" fill="#c8523a"/>
        <!-- blush -->
        <ellipse cx="-55" cy="10" rx="14" ry="7" fill="#e8784a" opacity="0.45"/>
        <ellipse cx="55" cy="10" rx="14" ry="7" fill="#e8784a" opacity="0.45"/>
    </g>

    <!-- ===== Floating oversized scissors (left, decorative) ===== -->
    <g transform="translate(220, 460) rotate(-25)" opacity="0.95">
        <!-- blades -->
        <path d="M 0 -50 L 180 30 L 180 42 L 0 -38 Z" fill="url(#scissorGold)"/>
        <path d="M 0 50 L 180 -30 L 180 -42 L 0 38 Z" fill="url(#scissorGold)"/>
        <!-- highlight -->
        <path d="M 10 -50 L 175 25" stroke="#fff5d8" stroke-width="1.5" opacity="0.7"/>
        <path d="M 10 50 L 175 -25" stroke="#fff5d8" stroke-width="1.5" opacity="0.7"/>
        <!-- pivot -->
        <circle cx="180" cy="0" r="12" fill="#1a0a08"/>
        <circle cx="180" cy="0" r="12" fill="none" stroke="url(#scissorGold)" stroke-width="2"/>
        <!-- handles -->
        <ellipse cx="-25" cy="-75" rx="48" ry="34" fill="none" stroke="url(#scissorGold)" stroke-width="16"/>
        <ellipse cx="-25" cy="75" rx="48" ry="34" fill="none" stroke="url(#scissorGold)" stroke-width="16"/>
        <ellipse cx="-25" cy="-75" rx="36" ry="24" fill="none" stroke="#1a0a08" stroke-width="2"/>
        <ellipse cx="-25" cy="75" rx="36" ry="24" fill="none" stroke="#1a0a08" stroke-width="2"/>
    </g>

    <!-- ===== Floating hair strands (motion) ===== -->
    <g stroke-linecap="round" fill="none">
        <path d="M 60 80 Q 200 60, 350 100" stroke="#d49b3a" stroke-width="2" opacity="0.7"/>
        <path d="M 80 130 Q 240 110, 380 150" stroke="#e8784a" stroke-width="2" opacity="0.6"/>
        <path d="M 50 200 Q 220 195, 360 220" stroke="#d49b3a" stroke-width="1.5" opacity="0.55"/>
        <path d="M 70 280 Q 250 285, 400 300" stroke="#e8784a" stroke-width="1.5" opacity="0.45"/>
    </g>

    <!-- Strands around the woman (decorative) -->
    <g stroke-linecap="round" fill="none" opacity="0.5">
        <path d="M 1000 60 Q 1050 140, 1010 240" stroke="#d49b3a" stroke-width="1.5"/>
        <path d="M 1080 100 Q 1130 180, 1090 280" stroke="#e8784a" stroke-width="1.5"/>
        <path d="M 1140 200 Q 1180 280, 1140 360" stroke="#d49b3a" stroke-width="1.5"/>
    </g>

    <!-- ===== Sparkles ===== -->
    <g fill="#f4d870">
        <path d="M 540 100 L 545 112 L 557 117 L 545 122 L 540 134 L 535 122 L 523 117 L 535 112 Z" opacity="0.85"/>
        <path d="M 440 720 L 445 732 L 457 737 L 445 742 L 440 754 L 435 742 L 423 737 L 435 732 Z" opacity="0.7"/>
        <path d="M 1020 480 L 1024 490 L 1034 494 L 1024 498 L 1020 508 L 1016 498 L 1006 494 L 1016 490 Z" opacity="0.7"/>
        <path d="M 360 80 L 363 88 L 371 91 L 363 94 L 360 102 L 357 94 L 349 91 L 357 88 Z" opacity="0.6"/>
    </g>

    <!-- ===== Soft vignette to focus center ===== -->
    <radialGradient id="vignetteHero" cx="0.5" cy="0.5" r="0.7">
        <stop offset="60%" stop-color="#000" stop-opacity="0"/>
        <stop offset="100%" stop-color="#000" stop-opacity="0.5"/>
    </radialGradient>
    <rect width="1200" height="900" fill="url(#vignetteHero)"/>

    <!-- ===== Frame ===== -->
    <rect x="20" y="20" width="1160" height="860" fill="none" stroke="#d49b3a" stroke-width="0.5" opacity="0.5"/>
    <rect x="30" y="30" width="1140" height="840" fill="none" stroke="#d49b3a" stroke-width="0.3" opacity="0.3"/>

    <!-- ===== Plate labels ===== -->
    <text x="50" y="60" font-family="Playfair Display, serif" font-style="italic" font-size="16" fill="#e8d8c4" opacity="0.6">PL. I — LA MARCA DORADA</text>
    <text x="1150" y="60" font-family="JetBrains Mono, monospace" font-size="11" fill="#d49b3a" text-anchor="end" opacity="0.7">ESTUDIO CAMILA · LA PAZ, BO</text>

    <text x="50" y="855" font-family="JetBrains Mono, monospace" font-size="11" fill="#d49b3a" opacity="0.7">Nº 000 — MMXXVI</text>
    <text x="1150" y="855" font-family="JetBrains Mono, monospace" font-size="11" fill="#e8d8c4" text-anchor="end" opacity="0.6">Peluquería &amp; Estética</text>

    <!-- Grain overlay -->
    <rect width="1200" height="900" filter="url(#grainHero)" opacity="0.5"/>
</svg>