<svg xmlns="http://www.w3.org/2000/svg" viewBox="0 0 800 600" preserveAspectRatio="xMidYMid slice" role="img" aria-label="Ilustración simulada — Coloración">
    <defs>
        <linearGradient id="bgSvcColor" x1="0" y1="0" x2="1" y2="1">
            <stop offset="0%" stop-color="#1a1424"/>
            <stop offset="100%" stop-color="#050308"/>
        </linearGradient>
        <radialGradient id="haloColor" cx="0.5" cy="0.5" r="0.6">
            <stop offset="0%" stop-color="#e8784a" stop-opacity="0.35"/>
            <stop offset="100%" stop-color="#e8784a" stop-opacity="0"/>
        </radialGradient>
        <linearGradient id="strandGold" x1="0" y1="0" x2="0" y2="1">
            <stop offset="0%" stop-color="#f4d870"/>
            <stop offset="100%" stop-color="#d49b3a"/>
        </linearGradient>
        <linearGradient id="strandCoral" x1="0" y1="0" x2="0" y2="1">
            <stop offset="0%" stop-color="#f0a07a"/>
            <stop offset="100%" stop-color="#e8784a"/>
        </linearGradient>
        <linearGradient id="strandCream" x1="0" y1="0" x2="0" y2="1">
            <stop offset="0%" stop-color="#f4e4c8"/>
            <stop offset="100%" stop-color="#e8d8c4"/>
        </linearGradient>
        <filter id="grainColor"><feTurbulence baseFrequency="0.9" numOctaves="2" seed="33"/><feColorMatrix values="0 0 0 0 0  0 0 0 0 0  0 0 0 0 0  0 0 0 0.04 0"/><feComposite in2="SourceGraphic" operator="in"/></filter>
    </defs>

    <rect width="800" height="600" fill="url(#bgSvcColor)"/>
    <rect width="800" height="600" fill="url(#haloColor)"/>

    <!-- Color swatch discs -->
    <g transform="translate(400, 300)">
        <!-- big coral disc -->
        <circle cx="0" cy="0" r="180" fill="url(#strandCoral)" opacity="0.95"/>
        <!-- gold half-moon -->
        <path d="M -180 0 A 180 180 0 0 1 180 0 Z" fill="url(#strandGold)" opacity="0.9"/>
        <!-- cream highlight -->
        <ellipse cx="-50" cy="-80" rx="80" ry="40" fill="url(#strandCream)" opacity="0.7"/>

        <!-- inner ring (depth) -->
        <circle cx="0" cy="0" r="180" fill="none" stroke="#1a0a08" stroke-width="3" opacity="0.6"/>
        <circle cx="0" cy="0" r="160" fill="none" stroke="#1a0a08" stroke-width="1" opacity="0.4"/>

        <!-- droplet marks (paint) -->
        <circle cx="120" cy="-120" r="22" fill="#f4d870" opacity="0.85"/>
        <circle cx="-140" cy="100" r="16" fill="#e8784a" opacity="0.85"/>
        <circle cx="80" cy="140" r="12" fill="#e8d8c4" opacity="0.7"/>

        <!-- center crosshair (mark) -->
        <line x1="-30" y1="0" x2="30" y2="0" stroke="#1a0a08" stroke-width="2" opacity="0.6"/>
        <line x1="0" y1="-30" x2="0" y2="30" stroke="#1a0a08" stroke-width="2" opacity="0.6"/>
    </g>

    <!-- Floating hair strands (the "color strand" effect) -->
    <g opacity="0.85" stroke-linecap="round" fill="none">
        <path d="M 100 80 Q 200 60, 280 100" stroke="url(#strandCoral)" stroke-width="3"/>
        <path d="M 110 100 Q 220 90, 320 130" stroke="url(#strandGold)" stroke-width="3"/>
        <path d="M 520 480 Q 600 510, 700 470" stroke="url(#strandCoral)" stroke-width="3"/>
        <path d="M 540 510 Q 620 530, 710 500" stroke="url(#strandGold)" stroke-width="3"/>
    </g>

    <rect x="20" y="20" width="760" height="560" fill="none" stroke="#d49b3a" stroke-width="0.5" opacity="0.5"/>
    <rect x="30" y="30" width="740" height="540" fill="none" stroke="#d49b3a" stroke-width="0.3" opacity="0.3"/>

    <text x="50" y="60" font-family="Playfair Display, serif" font-style="italic" font-size="14" fill="#e8d8c4" opacity="0.6">PL. III — SERVICIOS</text>
    <text x="750" y="60" font-family="JetBrains Mono, monospace" font-size="11" fill="#d49b3a" text-anchor="end" opacity="0.7">Nº 002 — COLOR</text>

    <text x="400" y="540" font-family="Playfair Display, serif" font-style="italic" font-size="22" fill="#e8d8c4" text-anchor="middle">Coloración</text>
    <text x="400" y="565" font-family="JetBrains Mono, monospace" font-size="10" fill="#d49b3a" text-anchor="middle" letter-spacing="2">DESDE 350 BS · 120 MIN</text>

    <rect width="800" height="600" filter="url(#grainColor)" opacity="0.6"/>
</svg>