<svg xmlns="http://www.w3.org/2000/svg" viewBox="0 0 800 600" preserveAspectRatio="xMidYMid slice" role="img" aria-label="Ilustración simulada — Barba y Perfilado">
    <defs>
        <linearGradient id="bgSvcBarba" x1="0" y1="0" x2="1" y2="1">
            <stop offset="0%" stop-color="#1a1424"/>
            <stop offset="100%" stop-color="#050308"/>
        </linearGradient>
        <linearGradient id="razorGold" x1="0" y1="0" x2="1" y2="0">
            <stop offset="0%" stop-color="#f4d870"/>
            <stop offset="100%" stop-color="#8a5a18"/>
        </linearGradient>
        <linearGradient id="poleR" x1="0" y1="0" x2="0" y2="1">
            <stop offset="0%" stop-color="#e8784a"/>
            <stop offset="100%" stop-color="#c8523a"/>
        </linearGradient>
        <linearGradient id="poleW" x1="0" y1="0" x2="0" y2="1">
            <stop offset="0%" stop-color="#f4e4c8"/>
            <stop offset="100%" stop-color="#e8d8c4"/>
        </linearGradient>
        <radialGradient id="haloBarba" cx="0.5" cy="0.5" r="0.55">
            <stop offset="0%" stop-color="#d49b3a" stop-opacity="0.3"/>
            <stop offset="100%" stop-color="#d49b3a" stop-opacity="0"/>
        </radialGradient>
        <filter id="grainBarba"><feTurbulence baseFrequency="0.9" numOctaves="2" seed="44"/><feColorMatrix values="0 0 0 0 0  0 0 0 0 0  0 0 0 0 0  0 0 0 0.04 0"/><feComposite in2="SourceGraphic" operator="in"/></filter>
    </defs>

    <rect width="800" height="600" fill="url(#bgSvcBarba)"/>
    <rect width="800" height="600" fill="url(#haloBarba)"/>

    <!-- Barber pole (vertical, classic spiral) -->
    <g transform="translate(180, 300)">
        <!-- pole base -->
        <rect x="-22" y="-180" width="44" height="360" fill="#1a0a08"/>
        <rect x="-22" y="-180" width="44" height="360" fill="none" stroke="url(#razorGold)" stroke-width="1.5"/>

        <!-- pole stripes (spiral effect) -->
        <g>
            <path d="M -22 -180 L 22 -180 L 22 -160 L -22 -160 Z" fill="url(#poleR)"/>
            <path d="M -22 -140 L 22 -140 L 22 -120 L -22 -120 Z" fill="url(#poleR)"/>
            <path d="M -22 -100 L 22 -100 L 22 -80 L -22 -80 Z" fill="url(#poleR)"/>
            <path d="M -22 -60 L 22 -60 L 22 -40 L -22 -40 Z" fill="url(#poleR)"/>
            <path d="M -22 -20 L 22 -20 L 22 0 L -22 0 Z" fill="url(#poleR)"/>
            <path d="M -22 20 L 22 20 L 22 40 L -22 40 Z" fill="url(#poleR)"/>
            <path d="M -22 60 L 22 60 L 22 80 L -22 80 Z" fill="url(#poleR)"/>
            <path d="M -22 100 L 22 100 L 22 120 L -22 120 Z" fill="url(#poleR)"/>
            <path d="M -22 140 L 22 140 L 22 160 L -22 160 Z" fill="url(#poleR)"/>
        </g>

        <!-- diagonal cream overlay (spiral illusion) -->
        <g opacity="0.55">
            <path d="M -22 -180 L 0 -180 L 22 -100 L 22 -80 L 0 -160 L -22 -160 Z" fill="url(#poleW)"/>
            <path d="M -22 -60 L 0 -60 L 22 20 L 22 40 L 0 -40 L -22 -40 Z" fill="url(#poleW)"/>
            <path d="M -22 60 L 0 60 L 22 140 L 22 160 L 0 80 L -22 80 Z" fill="url(#poleW)"/>
        </g>

        <!-- top cap -->
        <ellipse cx="0" cy="-180" rx="22" ry="6" fill="url(#razorGold)"/>
        <ellipse cx="0" cy="180" rx="22" ry="6" fill="url(#razorGold)"/>

        <!-- shadow -->
        <rect x="22" y="-180" width="20" height="360" fill="#000" opacity="0.4"/>
    </g>

    <!-- Razor (open, classic straight razor) -->
    <g transform="translate(540, 300) rotate(-15)">
        <!-- handle -->
        <rect x="-30" y="80" width="40" height="20" rx="4" fill="url(#razorGold)"/>
        <rect x="-30" y="80" width="40" height="20" rx="4" fill="none" stroke="#1a0a08" stroke-width="1"/>
        <!-- blade -->
        <path d="M 10 90 L 180 -20 L 190 0 L 10 110 Z" fill="url(#razorGold)" opacity="0.92"/>
        <path d="M 10 90 L 180 -20" stroke="#fff5d8" stroke-width="1.5" opacity="0.7"/>
        <!-- pivot -->
        <circle cx="10" cy="100" r="5" fill="#1a0a08"/>
    </g>

    <!-- Beard trim line indicator (subtle dotted arc) -->
    <path d="M 380 470 Q 420 480, 460 470" stroke="#d49b3a" stroke-width="1" stroke-dasharray="3,4" fill="none" opacity="0.5"/>

    <rect x="20" y="20" width="760" height="560" fill="none" stroke="#d49b3a" stroke-width="0.5" opacity="0.5"/>
    <rect x="30" y="30" width="740" height="540" fill="none" stroke="#d49b3a" stroke-width="0.3" opacity="0.3"/>

    <text x="50" y="60" font-family="Playfair Display, serif" font-style="italic" font-size="14" fill="#e8d8c4" opacity="0.6">PL. III — SERVICIOS</text>
    <text x="750" y="60" font-family="JetBrains Mono, monospace" font-size="11" fill="#d49b3a" text-anchor="end" opacity="0.7">Nº 003 — BARBA</text>

    <text x="400" y="540" font-family="Playfair Display, serif" font-style="italic" font-size="22" fill="#e8d8c4" text-anchor="middle">Barba &amp; Perfilado</text>
    <text x="400" y="565" font-family="JetBrains Mono, monospace" font-size="10" fill="#d49b3a" text-anchor="middle" letter-spacing="2">DESDE 60 BS · 30 MIN</text>

    <rect width="800" height="600" filter="url(#grainBarba)" opacity="0.6"/>
</svg>