<svg xmlns="http://www.w3.org/2000/svg" viewBox="0 0 800 600" preserveAspectRatio="xMidYMid slice" role="img" aria-label="Ilustración simulada — Peinado de Novias">
    <defs>
        <linearGradient id="bgSvcNovias" x1="0" y1="0" x2="1" y2="1">
            <stop offset="0%" stop-color="#1a1424"/>
            <stop offset="100%" stop-color="#050308"/>
        </linearGradient>
        <radialGradient id="haloNovias" cx="0.5" cy="0.45" r="0.65">
            <stop offset="0%" stop-color="#f4d870" stop-opacity="0.4"/>
            <stop offset="40%" stop-color="#e8784a" stop-opacity="0.25"/>
            <stop offset="100%" stop-color="#e8784a" stop-opacity="0"/>
        </radialGradient>
        <linearGradient id="veilGrad" x1="0" y1="0" x2="0" y2="1">
            <stop offset="0%" stop-color="#f4e4c8" stop-opacity="0.8"/>
            <stop offset="100%" stop-color="#e8d8c4" stop-opacity="0.15"/>
        </linearGradient>
        <linearGradient id="goldNovias" x1="0" y1="0" x2="1" y2="1">
            <stop offset="0%" stop-color="#fff5d8"/>
            <stop offset="50%" stop-color="#d49b3a"/>
            <stop offset="100%" stop-color="#8a5a18"/>
        </linearGradient>
        <filter id="grainNovias"><feTurbulence baseFrequency="0.9" numOctaves="2" seed="77"/><feColorMatrix values="0 0 0 0 0  0 0 0 0 0  0 0 0 0 0  0 0 0 0.04 0"/><feComposite in2="SourceGraphic" operator="in"/></filter>
    </defs>

    <rect width="800" height="600" fill="url(#bgSvcNovias)"/>
    <rect width="800" height="600" fill="url(#haloNovias)"/>

    <!-- Halo ring (above head) -->
    <g transform="translate(400, 180)" opacity="0.85">
        <ellipse cx="0" cy="0" rx="120" ry="18" fill="none" stroke="url(#goldNovias)" stroke-width="2"/>
        <ellipse cx="0" cy="0" rx="120" ry="18" fill="none" stroke="#fff5d8" stroke-width="0.5" opacity="0.7"/>
        <!-- sparkle points -->
        <circle cx="-120" cy="0" r="3" fill="#f4d870"/>
        <circle cx="120" cy="0" r="3" fill="#f4d870"/>
        <circle cx="0" cy="-18" r="2" fill="#fff5d8"/>
    </g>

    <!-- Stylized bride head silhouette -->
    <g transform="translate(400, 320)">
        <!-- veil (background, wider) -->
        <path d="M -160 -20 Q -200 80, -180 200 L 180 200 Q 200 80, 160 -20 Q 100 -10, 0 -10 Q -100 -10, -160 -20 Z" fill="url(#veilGrad)"/>

        <!-- head -->
        <ellipse cx="0" cy="0" rx="90" ry="115" fill="#e0b890" opacity="0.95"/>
        <ellipse cx="0" cy="0" rx="90" ry="115" fill="none" stroke="#a07048" stroke-width="1" opacity="0.4"/>

        <!-- hair (loose, side-swept) -->
        <path d="M -85 -30 Q -100 -100, 0 -110 Q 100 -100, 85 -30 Q 95 30, 85 80 Q 110 130, 90 180 L 70 180 Q 80 130, 75 80 Q 85 30, 60 0 Q 0 -20, -60 0 Q -85 30, -75 80 Q -80 130, -70 180 L -90 180 Q -110 130, -85 80 Q -95 30, -85 -30 Z" fill="#c89878"/>
        <!-- highlights -->
        <path d="M -70 -60 Q -40 -90, 0 -95" stroke="#d49b3a" stroke-width="1.5" fill="none" opacity="0.6"/>
        <path d="M 70 -60 Q 40 -90, 0 -95" stroke="#d49b3a" stroke-width="1.5" fill="none" opacity="0.6"/>

        <!-- face features (minimal) -->
        <ellipse cx="-25" cy="10" rx="6" ry="3" fill="#1a0a08"/>
        <ellipse cx="25" cy="10" rx="6" ry="3" fill="#1a0a08"/>
        <!-- eyelashes -->
        <path d="M -34 5 Q -28 2, -22 5" stroke="#1a0a08" stroke-width="1" fill="none"/>
        <path d="M 22 5 Q 28 2, 34 5" stroke="#1a0a08" stroke-width="1" fill="none"/>
        <!-- lips -->
        <path d="M -10 60 Q 0 65, 10 60 Q 5 67, 0 67 Q -5 67, -10 60 Z" fill="#c8523a"/>
        <!-- blush -->
        <ellipse cx="-40" cy="35" rx="10" ry="5" fill="#e8784a" opacity="0.4"/>
        <ellipse cx="40" cy="35" rx="10" ry="5" fill="#e8784a" opacity="0.4"/>

        <!-- tiara -->
        <g transform="translate(0, -100)" opacity="0.95">
            <path d="M -45 0 Q 0 -20, 45 0" stroke="url(#goldNovias)" stroke-width="2.5" fill="none"/>
            <circle cx="0" cy="-18" r="6" fill="#f4d870"/>
            <circle cx="-25" cy="-10" r="4" fill="#d49b3a"/>
            <circle cx="25" cy="-10" r="4" fill="#d49b3a"/>
            <circle cx="-50" cy="0" r="2.5" fill="#d49b3a"/>
            <circle cx="50" cy="0" r="2.5" fill="#d49b3a"/>
        </g>

        <!-- veil attachment dots -->
        <circle cx="-50" cy="-100" r="2" fill="#d49b3a"/>
        <circle cx="50" cy="-100" r="2" fill="#d49b3a"/>
    </g>

    <!-- Falling petals / sparkles -->
    <g fill="#f4d870" opacity="0.7">
        <circle cx="120" cy="100" r="3"/>
        <circle cx="680" cy="120" r="3"/>
        <circle cx="140" cy="450" r="3"/>
        <circle cx="660" cy="430" r="3"/>
        <circle cx="80" cy="280" r="2"/>
        <circle cx="720" cy="280" r="2"/>
    </g>

    <rect x="20" y="20" width="760" height="560" fill="none" stroke="#d49b3a" stroke-width="0.5" opacity="0.5"/>
    <rect x="30" y="30" width="740" height="540" fill="none" stroke="#d49b3a" stroke-width="0.3" opacity="0.3"/>

    <text x="50" y="60" font-family="Playfair Display, serif" font-style="italic" font-size="14" fill="#e8d8c4" opacity="0.6">PL. III — SERVICIOS</text>
    <text x="750" y="60" font-family="JetBrains Mono, monospace" font-size="11" fill="#d49b3a" text-anchor="end" opacity="0.7">Nº 006 — NOVIAS</text>

    <text x="400" y="540" font-family="Playfair Display, serif" font-style="italic" font-size="22" fill="#e8d8c4" text-anchor="middle">Novias</text>
    <text x="400" y="565" font-family="JetBrains Mono, monospace" font-size="10" fill="#d49b3a" text-anchor="middle" letter-spacing="2">DESDE 1500 BS · 240 MIN</text>

    <rect width="800" height="600" filter="url(#grainNovias)" opacity="0.6"/>
</svg>