<svg xmlns="http://www.w3.org/2000/svg" viewBox="0 0 800 600" preserveAspectRatio="xMidYMid slice" role="img" aria-label="Ilustración simulada — Peinado y Eventos">
    <defs>
        <linearGradient id="bgSvcPeinado" x1="0" y1="0" x2="1" y2="1">
            <stop offset="0%" stop-color="#1a1424"/>
            <stop offset="100%" stop-color="#050308"/>
        </linearGradient>
        <radialGradient id="haloPeinado" cx="0.5" cy="0.4" r="0.6">
            <stop offset="0%" stop-color="#e8784a" stop-opacity="0.35"/>
            <stop offset="100%" stop-color="#e8784a" stop-opacity="0"/>
        </radialGradient>
        <linearGradient id="combGold" x1="0" y1="0" x2="0" y2="1">
            <stop offset="0%" stop-color="#f4d870"/>
            <stop offset="100%" stop-color="#8a5a18"/>
        </linearGradient>
        <linearGradient id="roseGold" x1="0" y1="0" x2="0" y2="1">
            <stop offset="0%" stop-color="#f0a07a"/>
            <stop offset="100%" stop-color="#c8523a"/>
        </linearGradient>
        <filter id="grainPeinado"><feTurbulence baseFrequency="0.9" numOctaves="2" seed="55"/><feColorMatrix values="0 0 0 0 0  0 0 0 0 0  0 0 0 0 0  0 0 0 0.04 0"/><feComposite in2="SourceGraphic" operator="in"/></filter>
    </defs>

    <rect width="800" height="600" fill="url(#bgSvcPeinado)"/>
    <rect width="800" height="600" fill="url(#haloPeinado)"/>

    <!-- Stylized updo silhouette (back view) -->
    <g transform="translate(400, 280)" opacity="0.9">
        <!-- bun -->
        <circle cx="0" cy="-50" r="80" fill="url(#roseGold)"/>
        <circle cx="0" cy="-50" r="80" fill="none" stroke="#1a0a08" stroke-width="2"/>
        <!-- bun shine -->
        <ellipse cx="-30" cy="-80" rx="30" ry="15" fill="#f4e4c8" opacity="0.5"/>
        <!-- bun ring (texture) -->
        <circle cx="0" cy="-50" r="60" fill="none" stroke="#8a3520" stroke-width="1.5" opacity="0.6"/>
        <circle cx="0" cy="-50" r="40" fill="none" stroke="#8a3520" stroke-width="1.5" opacity="0.6"/>

        <!-- hair flow down (neck) -->
        <path d="M -60 0 Q -90 100, -70 200 L 70 200 Q 90 100, 60 0 Q 0 30, -60 0 Z" fill="url(#roseGold)" opacity="0.85"/>

        <!-- braid detail on side -->
        <g opacity="0.7">
            <ellipse cx="-40" cy="60" rx="6" ry="12" fill="#1a0a08"/>
            <ellipse cx="-40" cy="90" rx="6" ry="12" fill="#1a0a08"/>
            <ellipse cx="-40" cy="120" rx="6" ry="12" fill="#1a0a08"/>
        </g>
    </g>

    <!-- Tiara / hair accessory -->
    <g transform="translate(400, 180)" opacity="0.85">
        <path d="M -50 0 Q 0 -25, 50 0" stroke="url(#combGold)" stroke-width="3" fill="none"/>
        <circle cx="0" cy="-22" r="5" fill="#d49b3a"/>
        <circle cx="-25" cy="-13" r="3" fill="#d49b3a"/>
        <circle cx="25" cy="-13" r="3" fill="#d49b3a"/>
    </g>

    <!-- Sparkles -->
    <g fill="#f4d870" opacity="0.7">
        <path d="M 100 80 L 105 90 L 115 95 L 105 100 L 100 110 L 95 100 L 85 95 L 95 90 Z"/>
        <path d="M 700 480 L 705 490 L 715 495 L 705 500 L 700 510 L 695 500 L 685 495 L 695 490 Z"/>
        <path d="M 130 460 L 134 468 L 142 472 L 134 476 L 130 484 L 126 476 L 118 472 L 126 468 Z"/>
    </g>

    <!-- Comb (lower right) -->
    <g transform="translate(620, 440) rotate(-15)" opacity="0.7">
        <rect x="-50" y="0" width="100" height="14" rx="4" fill="url(#combGold)"/>
        <g stroke="url(#combGold)" stroke-width="3">
            <line x1="-40" y1="14" x2="-40" y2="40"/>
            <line x1="-25" y1="14" x2="-25" y2="40"/>
            <line x1="-10" y1="14" x2="-10" y2="40"/>
            <line x1="5" y1="14" x2="5" y2="40"/>
            <line x1="20" y1="14" x2="20" y2="40"/>
            <line x1="35" y1="14" x2="35" y2="40"/>
        </g>
    </g>

    <rect x="20" y="20" width="760" height="560" fill="none" stroke="#d49b3a" stroke-width="0.5" opacity="0.5"/>
    <rect x="30" y="30" width="740" height="540" fill="none" stroke="#d49b3a" stroke-width="0.3" opacity="0.3"/>

    <text x="50" y="60" font-family="Playfair Display, serif" font-style="italic" font-size="14" fill="#e8d8c4" opacity="0.6">PL. III — SERVICIOS</text>
    <text x="750" y="60" font-family="JetBrains Mono, monospace" font-size="11" fill="#d49b3a" text-anchor="end" opacity="0.7">Nº 004 — PEINADO</text>

    <text x="400" y="540" font-family="Playfair Display, serif" font-style="italic" font-size="22" fill="#e8d8c4" text-anchor="middle">Peinado &amp; Eventos</text>
    <text x="400" y="565" font-family="JetBrains Mono, monospace" font-size="10" fill="#d49b3a" text-anchor="middle" letter-spacing="2">DESDE 200 BS · 90 MIN</text>

    <rect width="800" height="600" filter="url(#grainPeinado)" opacity="0.6"/>
</svg>