<svg xmlns="http://www.w3.org/2000/svg" viewBox="0 0 800 1000" preserveAspectRatio="xMidYMid slice" role="img" aria-label="Retrato simulado de Diego S., Barber">
    <defs>
        <linearGradient id="bgDiego" x1="0" y1="0" x2="1" y2="1">
            <stop offset="0%" stop-color="#0a0a14"/>
            <stop offset="55%" stop-color="#1a1424"/>
            <stop offset="100%" stop-color="#050308"/>
        </linearGradient>
        <linearGradient id="skinDiego" x1="0" y1="0" x2="0" y2="1">
            <stop offset="0%" stop-color="#c89878"/>
            <stop offset="100%" stop-color="#9c6a48"/>
        </linearGradient>
        <linearGradient id="hairDiego" x1="0" y1="0" x2="0" y2="1">
            <stop offset="0%" stop-color="#1a0a08"/>
            <stop offset="100%" stop-color="#0a0404"/>
        </linearGradient>
        <radialGradient id="goldHaloDiego" cx="0.5" cy="0.3" r="0.6">
            <stop offset="0%" stop-color="#d49b3a" stop-opacity="0.4"/>
            <stop offset="100%" stop-color="#d49b3a" stop-opacity="0"/>
        </radialGradient>
        <filter id="grainDiego">
            <feTurbulence baseFrequency="0.9" numOctaves="2" seed="11"/>
            <feColorMatrix values="0 0 0 0 0  0 0 0 0 0  0 0 0 0 0  0 0 0 0.04 0"/>
            <feComposite in2="SourceGraphic" operator="in"/>
        </filter>
    </defs>

    <rect width="800" height="1000" fill="url(#bgDiego)"/>
    <rect width="800" height="1000" fill="url(#goldHaloDiego)"/>

    <!-- Shoulders / black shirt -->
    <path d="M 90 1000 L 90 850 Q 200 720, 400 720 Q 600 720, 710 850 L 710 1000 Z" fill="#0a0a14"/>
    <path d="M 90 1000 L 90 850 Q 200 720, 400 720 Q 600 720, 710 850 L 710 1000 Z" fill="none" stroke="#d49b3a" stroke-width="0.5" opacity="0.4"/>
    <!-- shirt opening -->
    <path d="M 360 720 L 400 770 L 440 720" fill="none" stroke="#d49b3a" stroke-width="0.5" opacity="0.5"/>

    <!-- Neck -->
    <rect x="345" y="600" width="110" height="135" fill="url(#skinDiego)"/>

    <!-- Beard frame hint -->
    <g opacity="0.4">
        <ellipse cx="400" cy="500" rx="80" ry="50" fill="#1a0a08"/>
    </g>

    <!-- Head -->
    <ellipse cx="400" cy="430" rx="135" ry="170" fill="url(#skinDiego)"/>

    <!-- Beard -->
    <path d="M 290 460 Q 295 540, 340 580 Q 380 605, 400 608 Q 420 605, 460 580 Q 505 540, 510 460 Q 490 510, 460 530 Q 430 540, 400 542 Q 370 540, 340 530 Q 310 510, 290 460 Z" fill="url(#hairDiego)"/>

    <!-- Hair (short fade) -->
    <path d="M 280 380 Q 275 270, 400 250 Q 525 270, 520 380 Q 510 350, 480 330 Q 440 318, 400 318 Q 360 318, 320 330 Q 290 350, 280 380 Z" fill="url(#hairDiego)"/>
    <!-- fade line -->
    <path d="M 270 410 Q 290 405, 310 408" stroke="#0a0404" stroke-width="3" fill="none"/>
    <path d="M 490 408 Q 510 405, 530 410" stroke="#0a0404" stroke-width="3" fill="none"/>

    <!-- Eyebrows thick -->
    <path d="M 335 405 Q 360 392, 385 405" stroke="#0a0404" stroke-width="6" fill="none" stroke-linecap="round"/>
    <path d="M 415 405 Q 440 392, 465 405" stroke="#0a0404" stroke-width="6" fill="none" stroke-linecap="round"/>

    <!-- Eyes -->
    <g>
        <ellipse cx="358" cy="430" rx="13" ry="7" fill="#0a0404"/>
        <ellipse cx="442" cy="430" rx="13" ry="7" fill="#0a0404"/>
        <circle cx="361" cy="428" r="3" fill="#e8d8c4"/>
        <circle cx="445" cy="428" r="3" fill="#e8d8c4"/>
    </g>

    <!-- Nose -->
    <path d="M 400 450 Q 395 485, 390 500 Q 400 505, 410 500 Q 405 485, 400 450" fill="none" stroke="#7a4828" stroke-width="1.5" opacity="0.7"/>

    <!-- Mustache + lips under mustache -->
    <path d="M 360 525 Q 380 520, 400 522 Q 420 520, 440 525 Q 425 532, 400 532 Q 375 532, 360 525 Z" fill="#0a0404"/>

    <!-- Razor / barber pole element (subtle) -->
    <g transform="translate(110, 800)" opacity="0.5">
        <rect x="0" y="0" width="14" height="180" fill="#e8784a"/>
        <rect x="0" y="0" width="14" height="180" fill="#e8d8c4" mask="url(#razorStripe)"/>
        <rect x="0" y="0" width="14" height="180" fill="#d49b3a"/>
    </g>

    <!-- Frame border -->
    <rect x="20" y="20" width="760" height="960" fill="none" stroke="#d49b3a" stroke-width="0.5" opacity="0.5"/>
    <rect x="30" y="30" width="740" height="940" fill="none" stroke="#d49b3a" stroke-width="0.3" opacity="0.3"/>

    <text x="50" y="70" font-family="Playfair Display, serif" font-style="italic" font-size="16" fill="#e8d8c4" opacity="0.6">PL. II — EQUIPO</text>
    <text x="750" y="70" font-family="JetBrains Mono, monospace" font-size="12" fill="#d49b3a" text-anchor="end" opacity="0.7">Nº 003 — MMXXVI</text>

    <text x="400" y="940" font-family="Playfair Display, serif" font-style="italic" font-size="22" fill="#e8d8c4" text-anchor="middle">Diego S.</text>
    <text x="400" y="965" font-family="JetBrains Mono, monospace" font-size="11" fill="#d49b3a" text-anchor="middle" letter-spacing="2">BARBER</text>

    <rect width="800" height="1000" filter="url(#grainDiego)" opacity="0.6"/>
</svg>