<svg xmlns="http://www.w3.org/2000/svg" viewBox="0 0 800 1000" preserveAspectRatio="xMidYMid slice" role="img" aria-label="Retrato simulado de Lucía R., Estilista">
    <defs>
        <linearGradient id="bgLucia" x1="0" y1="0" x2="1" y2="1">
            <stop offset="0%" stop-color="#1a1424"/>
            <stop offset="55%" stop-color="#241830"/>
            <stop offset="100%" stop-color="#050308"/>
        </linearGradient>
        <linearGradient id="hairLucia" x1="0.2" y1="0" x2="0.8" y2="1">
            <stop offset="0%" stop-color="#4a2a18"/>
            <stop offset="60%" stop-color="#6a3825"/>
            <stop offset="100%" stop-color="#2a1408"/>
        </linearGradient>
        <linearGradient id="skinLucia" x1="0" y1="0" x2="0" y2="1">
            <stop offset="0%" stop-color="#e0b890"/>
            <stop offset="100%" stop-color="#b88860"/>
        </linearGradient>
        <radialGradient id="coralHaloLucia" cx="0.5" cy="0.35" r="0.55">
            <stop offset="0%" stop-color="#e8784a" stop-opacity="0.45"/>
            <stop offset="100%" stop-color="#e8784a" stop-opacity="0"/>
        </radialGradient>
        <filter id="grainLucia">
            <feTurbulence baseFrequency="0.9" numOctaves="2" seed="7"/>
            <feColorMatrix values="0 0 0 0 0  0 0 0 0 0  0 0 0 0 0  0 0 0 0.04 0"/>
            <feComposite in2="SourceGraphic" operator="in"/>
        </filter>
    </defs>

    <rect width="800" height="1000" fill="url(#bgLucia)"/>
    <rect width="800" height="1000" fill="url(#coralHaloLucia)"/>

    <!-- Shoulders / blouse -->
    <path d="M 80 1000 L 80 850 Q 180 720, 400 720 Q 620 720, 720 850 L 720 1000 Z" fill="#e8784a"/>
    <path d="M 80 1000 L 80 850 Q 180 720, 400 720 Q 620 720, 720 850 L 720 1000 Z" fill="none" stroke="#d49b3a" stroke-width="0.5" opacity="0.6"/>
    <!-- collar V -->
    <path d="M 340 720 L 400 800 L 460 720" fill="#1a1424"/>

    <!-- Neck -->
    <rect x="350" y="600" width="100" height="130" fill="url(#skinLucia)"/>
    <!-- necklace -->
    <path d="M 350 660 Q 400 690, 450 660" stroke="#d49b3a" stroke-width="1.5" fill="none"/>

    <!-- Head -->
    <ellipse cx="400" cy="430" rx="125" ry="160" fill="url(#skinLucia)"/>

    <!-- Hair (medium, with bangs) -->
    <path d="M 280 380 Q 270 230, 400 210 Q 530 230, 520 380 Q 530 440, 520 540 Q 540 620, 520 680 L 480 680 Q 500 620, 490 540 Q 500 460, 460 420 Q 400 400, 340 420 Q 300 460, 310 540 Q 300 620, 320 680 L 280 680 Q 260 620, 280 540 Q 270 440, 280 380 Z" fill="url(#hairLucia)"/>
    <!-- bangs -->
    <path d="M 290 380 Q 300 320, 400 300 Q 500 320, 510 380 Q 470 360, 430 365 Q 380 380, 330 365 Q 305 365, 290 380 Z" fill="url(#hairLucia)"/>
    <!-- highlights -->
    <path d="M 320 350 Q 360 290, 400 290 Q 440 290, 480 350" fill="none" stroke="#d49b3a" stroke-width="1.5" opacity="0.55"/>

    <!-- Eyes -->
    <g>
        <ellipse cx="362" cy="430" rx="12" ry="7" fill="#1a0a08"/>
        <ellipse cx="438" cy="430" rx="12" ry="7" fill="#1a0a08"/>
        <circle cx="365" cy="428" r="2.5" fill="#e8d8c4"/>
        <circle cx="441" cy="428" r="2.5" fill="#e8d8c4"/>
        <path d="M 348 410 Q 362 405, 376 410" stroke="#4a2a18" stroke-width="2.5" fill="none" stroke-linecap="round"/>
        <path d="M 424 410 Q 438 405, 452 410" stroke="#4a2a18" stroke-width="2.5" fill="none" stroke-linecap="round"/>
    </g>

    <!-- Nose -->
    <path d="M 400 450 Q 397 478, 393 490 Q 400 495, 407 490 Q 403 478, 400 450" fill="none" stroke="#a07048" stroke-width="1.5" opacity="0.6"/>

    <!-- Smile -->
    <path d="M 385 525 Q 400 535, 415 525" stroke="#8a3520" stroke-width="2" fill="none" stroke-linecap="round"/>
    <path d="M 388 528 Q 400 530, 412 528 Q 405 532, 400 532 Q 395 532, 388 528 Z" fill="#c8523a" opacity="0.7"/>

    <!-- Earrings -->
    <circle cx="278" cy="455" r="3" fill="#d49b3a"/>
    <circle cx="522" cy="455" r="3" fill="#d49b3a"/>

    <!-- Frame border -->
    <rect x="20" y="20" width="760" height="960" fill="none" stroke="#d49b3a" stroke-width="0.5" opacity="0.5"/>
    <rect x="30" y="30" width="740" height="940" fill="none" stroke="#d49b3a" stroke-width="0.3" opacity="0.3"/>

    <text x="50" y="70" font-family="Playfair Display, serif" font-style="italic" font-size="16" fill="#e8d8c4" opacity="0.6">PL. II — EQUIPO</text>
    <text x="750" y="70" font-family="JetBrains Mono, monospace" font-size="12" fill="#d49b3a" text-anchor="end" opacity="0.7">Nº 002 — MMXXVI</text>

    <text x="400" y="940" font-family="Playfair Display, serif" font-style="italic" font-size="22" fill="#e8d8c4" text-anchor="middle">Lucía R.</text>
    <text x="400" y="965" font-family="JetBrains Mono, monospace" font-size="11" fill="#d49b3a" text-anchor="middle" letter-spacing="2">ESTILISTA</text>

    <rect width="800" height="1000" filter="url(#grainLucia)" opacity="0.6"/>
</svg>